<?xml version="1.0" encoding="utf-8"?>
<!-- Generator: Adobe Illustrator 24.2.0, SVG Export Plug-In . SVG Version: 6.00 Build 0)  -->
<svg version="1.1" id="Calque_1" xmlns="http://www.w3.org/2000/svg" xmlns:xlink="http://www.w3.org/1999/xlink" x="0px" y="0px"
	 viewBox="0 0 23.1 21" style="enable-background:new 0 0 23.1 21;" xml:space="preserve">
<style type="text/css">
	.st0{fill:#424242;}
</style>
<g transform="translate(-781 -693.995)">
	<path class="st0" d="M790.1,694.4c0.3-0.3,0.6-0.5,1-0.5c0.4,0,0.8,0.2,1,0.5c0.3,0.3,0.4,0.7,0.4,1.1c0,0.4-0.1,0.8-0.4,1.1
		l-6.2,6.4h16.8c0.4,0,0.8,0.2,1,0.5c0.3,0.3,0.4,0.7,0.4,1c0,0.4-0.1,0.8-0.4,1.1c-0.3,0.3-0.6,0.4-1,0.4h-16.8l6.2,6.5
		c0.3,0.3,0.4,0.7,0.4,1.1c0,0.4-0.1,0.8-0.4,1.1c-0.3,0.3-0.6,0.4-1,0.4c-0.4,0-0.8-0.2-1-0.4l-8.7-9c-0.3-0.3-0.4-0.7-0.4-1.1
		c0-0.4,0.2-0.8,0.4-1c0,0,0,0,0,0L790.1,694.4z"/>
</g>
</svg>
