<?xml version="1.0" encoding="utf-8"?>
<!-- Generator: Adobe Illustrator 24.2.0, SVG Export Plug-In . SVG Version: 6.00 Build 0)  -->
<svg version="1.1" id="Calque_1" xmlns="http://www.w3.org/2000/svg" xmlns:xlink="http://www.w3.org/1999/xlink" x="0px" y="0px"
	 viewBox="0 0 48 48" style="enable-background:new 0 0 48 48;" xml:space="preserve">
<style type="text/css">
	.st0{fill:#424242;}
	.st1{fill:#FFFFFF;}
</style>
<g transform="translate(-1382 -5725)">
	<circle class="st0" cx="1406" cy="5749" r="24"/>
	<path class="st1" d="M1407.9,5739.4c-0.3-0.3-0.6-0.5-1-0.5c-0.4,0-0.8,0.2-1,0.5c-0.3,0.3-0.4,0.7-0.4,1c0,0.4,0.1,0.8,0.4,1.1
		l6.2,6.4h-16.7c-0.4,0-0.8,0.2-1,0.5c-0.3,0.3-0.4,0.7-0.4,1c0,0.4,0.1,0.8,0.4,1.1c0.3,0.3,0.6,0.4,1,0.4h16.7l-6.2,6.5
		c-0.3,0.3-0.4,0.7-0.4,1.1c0,0.4,0.1,0.8,0.4,1.1c0.3,0.3,0.6,0.4,1,0.4c0.4,0,0.7-0.2,1-0.4l8.6-9c0.3-0.3,0.4-0.7,0.4-1.1
		c0-0.4-0.1-0.8-0.4-1c0,0,0,0,0,0L1407.9,5739.4z"/>
</g>
</svg>
