<?xml version="1.0" encoding="utf-8"?>
<!-- Generator: Adobe Illustrator 24.2.0, SVG Export Plug-In . SVG Version: 6.00 Build 0)  -->
<svg version="1.1" id="Calque_1" xmlns="http://www.w3.org/2000/svg" xmlns:xlink="http://www.w3.org/1999/xlink" x="0px" y="0px"
	 viewBox="0 0 48 48" style="enable-background:new 0 0 48 48;" xml:space="preserve">
<style type="text/css">
	.st0{fill:#424242;}
	.st1{fill:#FFFFFF;}
</style>
<g transform="translate(-251 -5725)">
	<circle class="st0" cx="275" cy="5749" r="24"/>
	<path class="st1" d="M273.1,5739.2c0.3-0.3,0.6-0.4,1-0.4c0.4,0,0.8,0.2,1,0.4c0.3,0.3,0.4,0.6,0.4,1c0,0.4-0.1,0.8-0.4,1l-6.2,6.3
		h16.8c0.4,0,0.8,0.2,1,0.4c0.3,0.3,0.4,0.6,0.4,1c0,0.4-0.1,0.8-0.4,1c-0.3,0.3-0.6,0.4-1,0.4h-16.8l6.2,6.3c0.3,0.3,0.4,0.6,0.4,1
		c0,0.4-0.1,0.8-0.4,1c-0.3,0.3-0.6,0.4-1,0.4c-0.4,0-0.7-0.1-1-0.4l-8.7-8.8c-0.3-0.3-0.4-0.6-0.4-1c0-0.4,0.2-0.8,0.4-1
		c0,0,0,0,0,0c0,0,0,0,0,0L273.1,5739.2z"/>
</g>
</svg>
