<?xml version="1.0" encoding="utf-8"?>
<!-- Generator: Adobe Illustrator 24.2.0, SVG Export Plug-In . SVG Version: 6.00 Build 0)  -->
<svg version="1.1" id="Calque_1" xmlns="http://www.w3.org/2000/svg" xmlns:xlink="http://www.w3.org/1999/xlink" x="0px" y="0px"
	 viewBox="0 0 94 94" style="enable-background:new 0 0 94 94;" xml:space="preserve">
<style type="text/css">
	.st0{fill:#FFFFFF;}
	.st1{fill:#C0C0AC;}
</style>
<g transform="translate(-355 -5576)">
	<path class="st0" d="M402,5576c26,0,47,21,47,47s-21,47-47,47s-47-21-47-47S376,5576,402,5576z"/>
	<circle class="st0" cx="402" cy="5623" r="47"/>
	<path class="st1" d="M424.6,5610.4c-1-1-2.2-1.9-3.4-2.6v-1.2c0-0.6-0.5-1.2-1.1-1.3c-1.2-0.2-2.4-0.3-3.5-0.3
		c-4.5-0.1-8.8,1.6-12.2,4.6c-2.9-2.2-6.5-3.4-10.1-3.6c-3.8,0-7.3,1.6-9.9,4.4c-0.2,0.2-0.4,0.6-0.4,0.9v22.8
		c0,0.4,0.2,0.9,0.6,1.1c0.4,0.2,0.9,0.3,1.3,0.1c2.6-1.1,5.4-1.7,8.3-1.6c3.4,0,6.7,0.8,9.8,2.2h0c0.1,0,0.2,0.1,0.2,0.1l0,0
		c0.1,0,0.2,0,0.3,0h0c0.1,0,0.1,0,0.2,0c0.2,0,0.5-0.1,0.7-0.2c3-1.4,6.2-2.1,9.5-2.1c2.8,0,5.6,0.5,8.3,1.6
		c0.4,0.2,0.9,0.2,1.3-0.1c0.4-0.2,0.6-0.7,0.6-1.1v-22.8C425,5611,424.9,5610.7,424.6,5610.4z M405.9,5611.8
		c2.8-2.8,6.7-4.3,10.7-4.2c0.7,0,1.3,0,2,0.1v20.2c-0.4,0-0.9-0.1-1.4-0.1c-4.1,0-8,1.4-11.2,3.9L405.9,5611.8z M386.6,5632.2
		v-20.3c2-2,4.8-3.2,7.7-3.2c3.2,0.2,6.3,1.3,8.9,3.3v20.8c-2.9-1.1-5.9-1.7-9-1.7C391.6,5631.1,389.1,5631.4,386.6,5632.2
		L386.6,5632.2z M422.4,5632.2c-2.4-0.8-5-1.2-7.5-1.2c-0.9,0-1.8,0.1-2.7,0.1c1.6-0.5,3.3-0.8,5-0.8c0.8,0,1.6,0.1,2.4,0.2
		c0.4,0.1,0.8,0,1.1-0.2c0.3-0.2,0.5-0.6,0.5-1v-18.5c0.4,0.4,0.8,0.7,1.2,1.1L422.4,5632.2z"/>
</g>
</svg>
