<?xml version="1.0" encoding="utf-8"?>
<!-- Generator: Adobe Illustrator 24.2.0, SVG Export Plug-In . SVG Version: 6.00 Build 0)  -->
<svg version="1.1" id="Calque_1" xmlns="http://www.w3.org/2000/svg" xmlns:xlink="http://www.w3.org/1999/xlink" x="0px" y="0px"
	 viewBox="0 0 94 94" style="enable-background:new 0 0 94 94;" xml:space="preserve">
<style type="text/css">
	.st0{fill:#FFFFFF;}
	.st1{fill:#C0C0AC;}
</style>
<g transform="translate(-972 -5750)">
	<circle class="st0" cx="1019" cy="5797" r="47"/>
	<path class="st1" d="M1019.9,5821c-0.7,0-1.3-0.6-1.3-1.3v-6c-9.1-1.7-15.6-8.6-15.6-16.7c0-9.4,9-17.1,20-17.1s20,7.7,20,17.1
		c0,8.6-7.4,15.8-17.2,16.9l-4.7,6.5C1020.8,5820.8,1020.4,5821,1019.9,5821z M1023,5782.6c-9.6,0-17.4,6.5-17.4,14.4
		c0,7.1,6.1,13.1,14.5,14.2c0.7,0.1,1.1,0.6,1.1,1.3v3l2.7-3.7c0.2-0.3,0.6-0.5,0.9-0.5c8.8-0.8,15.4-7,15.4-14.3
		C1040.4,5789.1,1032.6,5782.6,1023,5782.6L1023,5782.6z M1017,5794.8c-1.1,0-2.1,0.9-2.1,2.1c0,1.1,0.9,2.1,2.1,2.1
		c1.1,0,2.1-0.9,2.1-2.1C1019.1,5795.7,1018.2,5794.8,1017,5794.8L1017,5794.8z M1023.3,5794.8c-1.1,0-2.1,0.9-2.1,2.1
		s0.9,2.1,2.1,2.1c1.1,0,2.1-0.9,2.1-2.1C1025.4,5795.7,1024.4,5794.8,1023.3,5794.8L1023.3,5794.8z M1029.6,5794.8
		c-1.1,0-2.1,0.9-2.1,2.1c0,1.1,0.9,2.1,2.1,2.1c1.1,0,2.1-0.9,2.1-2.1C1031.6,5795.7,1030.7,5794.8,1029.6,5794.8z"/>
</g>
</svg>
