<?xml version="1.0" encoding="utf-8"?>
<!-- Generator: Adobe Illustrator 24.2.0, SVG Export Plug-In . SVG Version: 6.00 Build 0)  -->
<svg version="1.1" id="Calque_1" xmlns="http://www.w3.org/2000/svg" xmlns:xlink="http://www.w3.org/1999/xlink" x="0px" y="0px"
	 viewBox="0 0 28 32" style="enable-background:new 0 0 28 32;" xml:space="preserve">
<style type="text/css">
	.st0{fill:#C0C0AC;}
</style>
<path class="st0" d="M1.2,32C0.5,32,0,31.5,0,30.8c0,0,0,0,0,0V1.2C0,0.6,0.5,0,1.2,0c0,0,0,0,0,0h25.6C27.4,0,28,0.5,28,1.2
	c0,0,0,0,0,0v29.5c0.1,0.6-0.4,1.2-1,1.3c-0.1,0-0.1,0-0.2,0L1.2,32z M2.4,29.5h23.2v-27H2.4L2.4,29.5z M18.7,26.9
	c-0.7,0-1.2-0.5-1.2-1.2s0.5-1.2,1.2-1.2h2.8c0.7,0,1.2,0.5,1.2,1.2s-0.5,1.2-1.2,1.2H18.7z M12.5,26.9c-0.7,0-1.2-0.5-1.2-1.2
	s0.5-1.2,1.2-1.2l0,0h2.8c0.7,0,1.2,0.5,1.2,1.2s-0.5,1.2-1.2,1.2H12.5z M6.1,26.9c-0.7,0-1.2-0.5-1.2-1.2s0.5-1.2,1.2-1.2h2.8
	c0.7,0,1.2,0.5,1.2,1.2s-0.5,1.2-1.2,1.2H6.1z M18.7,22.6c-0.7,0-1.2-0.5-1.2-1.2s0.5-1.2,1.2-1.2h2.8c0.7,0,1.2,0.5,1.2,1.2
	s-0.5,1.2-1.2,1.2H18.7z M12.5,22.6c-0.7,0-1.2-0.5-1.2-1.2s0.5-1.2,1.2-1.2l0,0h2.8c0.7,0,1.2,0.5,1.2,1.2s-0.5,1.2-1.2,1.2H12.5z
	 M6.1,22.6c-0.7,0-1.2-0.5-1.2-1.2s0.5-1.2,1.2-1.2h2.8c0.7,0,1.2,0.5,1.2,1.2s-0.5,1.2-1.2,1.2H6.1z M18.7,18.2
	c-0.7,0-1.2-0.5-1.2-1.2s0.5-1.2,1.2-1.2h2.8c0.7,0,1.2,0.5,1.2,1.2s-0.5,1.2-1.2,1.2H18.7z M12.5,18.2c-0.7,0-1.2-0.5-1.2-1.2
	s0.5-1.2,1.2-1.2l0,0h2.8c0.7,0,1.2,0.5,1.2,1.2s-0.5,1.2-1.2,1.2H12.5z M6.1,18.2c-0.7,0-1.2-0.5-1.2-1.2s0.5-1.2,1.2-1.2h2.8
	c0.7,0,1.2,0.5,1.2,1.2s-0.5,1.2-1.2,1.2H6.1z M5.8,13.5c-0.7,0-1.2-0.5-1.2-1.2c0,0,0,0,0,0V6.2C4.6,5.6,5.1,5,5.8,5c0,0,0,0,0,0
	h15.7c0.7,0,1.2,0.5,1.2,1.2c0,0,0,0,0,0v6.1c0,0.6-0.5,1.2-1.1,1.2c0,0-0.1,0-0.1,0L5.8,13.5z M7.1,11.1h13.3V7.4H7.1L7.1,11.1z"/>
</svg>
