<?xml version="1.0" encoding="utf-8"?>
<!-- Generator: Adobe Illustrator 24.2.0, SVG Export Plug-In . SVG Version: 6.00 Build 0)  -->
<svg version="1.1" id="Calque_1" xmlns="http://www.w3.org/2000/svg" xmlns:xlink="http://www.w3.org/1999/xlink" x="0px" y="0px"
	 viewBox="0 0 94 94" style="enable-background:new 0 0 94 94;" xml:space="preserve">
<style type="text/css">
	.st0{fill:#FFFFFF;}
	.st1{fill:#C0C0AC;}
</style>
<g transform="translate(-417 -3376)">
	<circle class="st0" cx="464" cy="3423" r="47"/>
	<path class="st1" d="M452.2,3439c-0.7,0-1.2-0.5-1.2-1.2c0,0,0,0,0,0v-29.6c0-0.7,0.5-1.2,1.2-1.2c0,0,0,0,0,0h25.6
		c0.7,0,1.2,0.5,1.2,1.2c0,0,0,0,0,0v29.5c0.1,0.6-0.4,1.2-1,1.3c-0.1,0-0.1,0-0.2,0L452.2,3439z M453.4,3436.5h23.2v-27.1h-23.2
		L453.4,3436.5z M469.7,3433.9c-0.7,0-1.2-0.5-1.2-1.2c0-0.7,0.5-1.2,1.2-1.2c0,0,0,0,0,0h2.8c0.7,0,1.2,0.5,1.2,1.2
		c0,0.7-0.5,1.2-1.2,1.2c0,0,0,0,0,0H469.7z M463.5,3433.9c-0.7,0-1.2-0.5-1.2-1.2c0-0.7,0.5-1.2,1.2-1.2c0,0,0,0,0,0h2.8
		c0.7,0,1.2,0.5,1.2,1.2c0,0.7-0.5,1.2-1.2,1.2c0,0,0,0,0,0H463.5z M457.1,3433.9c-0.7,0-1.2-0.5-1.2-1.2c0-0.7,0.5-1.2,1.2-1.2
		c0,0,0,0,0,0h2.8c0.7,0,1.2,0.5,1.2,1.2c0,0.7-0.5,1.2-1.2,1.2c0,0,0,0,0,0H457.1z M469.7,3429.6c-0.7,0-1.2-0.5-1.2-1.2
		c0-0.7,0.5-1.2,1.2-1.2c0,0,0,0,0,0h2.8c0.7,0,1.2,0.5,1.2,1.2c0,0.7-0.5,1.2-1.2,1.2c0,0,0,0,0,0H469.7z M463.5,3429.6
		c-0.7,0-1.2-0.5-1.2-1.2c0-0.7,0.5-1.2,1.2-1.2c0,0,0,0,0,0h2.8c0.7,0,1.2,0.5,1.2,1.2c0,0.7-0.5,1.2-1.2,1.2c0,0,0,0,0,0H463.5z
		 M457.1,3429.6c-0.7,0-1.2-0.5-1.2-1.2c0-0.7,0.5-1.2,1.2-1.2c0,0,0,0,0,0h2.8c0.7,0,1.2,0.5,1.2,1.2c0,0.7-0.5,1.2-1.2,1.2
		c0,0,0,0,0,0H457.1z M469.7,3425.2c-0.7,0-1.2-0.5-1.2-1.2c0-0.7,0.5-1.2,1.2-1.2c0,0,0,0,0,0h2.8c0.7,0,1.2,0.5,1.2,1.2
		c0,0.7-0.5,1.2-1.2,1.2c0,0,0,0,0,0H469.7z M463.5,3425.2c-0.7,0-1.2-0.5-1.2-1.2c0-0.7,0.5-1.2,1.2-1.2c0,0,0,0,0,0h2.8
		c0.7,0,1.2,0.5,1.2,1.2c0,0.7-0.5,1.2-1.2,1.2c0,0,0,0,0,0H463.5z M457.1,3425.2c-0.7,0-1.2-0.5-1.2-1.2c0-0.7,0.5-1.2,1.2-1.2
		c0,0,0,0,0,0h2.8c0.7,0,1.2,0.5,1.2,1.2c0,0.7-0.5,1.2-1.2,1.2c0,0,0,0,0,0H457.1z M456.8,3420.5c-0.7,0-1.2-0.5-1.2-1.2
		c0,0,0,0,0,0v-6.1c0-0.7,0.5-1.2,1.2-1.2c0,0,0,0,0,0h15.7c0.7,0,1.2,0.5,1.2,1.2c0,0,0,0,0,0v6.1c0,0.6-0.5,1.2-1.1,1.2
		c0,0-0.1,0-0.1,0H456.8z M458.1,3418.1h13.3v-3.7h-13.3L458.1,3418.1z"/>
</g>
</svg>
