<?xml version="1.0" encoding="utf-8"?>
<!-- Generator: Adobe Illustrator 24.2.0, SVG Export Plug-In . SVG Version: 6.00 Build 0)  -->
<svg version="1.1" id="Calque_1" xmlns="http://www.w3.org/2000/svg" xmlns:xlink="http://www.w3.org/1999/xlink" x="0px" y="0px"
	 viewBox="0 0 55.8 37.6" style="enable-background:new 0 0 55.8 37.6;" xml:space="preserve">
<style type="text/css">
	.st0{fill:#424242;}
</style>
<path class="st0" d="M32.3,37L19,29.5c-3.1-1.6-6.5-2.5-10-2.6H5.4c-3,0-5.4-2.4-5.4-5.4v-5.4c0-3,2.4-5.4,5.4-5.4H9
	c3.5-0.1,6.9-1,10-2.6l13.3-7.5c0.6-0.4,1.3-0.6,2-0.6C35.9,0,37,1.2,37,3.3v7.5l0,0c4.4,2.1,6.2,7.4,4.1,11.7
	c-0.9,1.8-2.3,3.2-4.1,4.1v7.5c0,2.1-1.1,3.3-2.6,3.3C33.6,37.6,32.9,37.4,32.3,37z M1.6,16.1v5.4c0,2.1,1.7,3.8,3.8,3.8H9
	c3.8,0.1,7.5,1.1,10.8,2.8l13.3,7.5c0.4,0.2,0.8,0.4,1.3,0.4c0.9,0,1-1.1,1-1.7V3.3c0-0.6-0.1-1.7-1-1.7c-0.4,0-0.9,0.2-1.3,0.4
	L19.8,9.5c-3.4,1.7-7,2.7-10.8,2.8H5.4C3.3,12.3,1.6,14,1.6,16.1L1.6,16.1z M37,24.9c3.4-2.1,4.4-6.5,2.3-9.9
	c-0.6-0.9-1.4-1.7-2.3-2.3V24.9z M50.2,34.7l-7.7-6.8c-0.3-0.3-0.4-0.8-0.1-1.1c0.3-0.3,0.8-0.4,1.1-0.1l0,0l7.7,6.8
	c0.3,0.3,0.4,0.8,0.1,1.1c-0.2,0.2-0.4,0.3-0.6,0.3C50.6,34.9,50.4,34.8,50.2,34.7L50.2,34.7z M45.5,19.6c-0.4,0-0.8-0.4-0.8-0.8
	c0-0.4,0.4-0.8,0.8-0.8H55c0.4,0,0.8,0.4,0.8,0.8c0,0.4-0.4,0.8-0.8,0.8H45.5z M42.5,10.9c-0.3-0.3-0.3-0.8,0.1-1.1l7.7-6.8
	c0.3-0.3,0.8-0.3,1.1,0.1c0.3,0.3,0.3,0.8-0.1,1.1l-7.7,6.8C43.3,11.2,42.8,11.2,42.5,10.9C42.5,10.9,42.5,10.9,42.5,10.9L42.5,10.9
	z M22.9,10.1c-0.2-0.4-0.1-0.8,0.3-1l7.3-4c0.4-0.2,0.8-0.1,1,0.3s0.1,0.8-0.3,1c0,0,0,0-0.1,0l-7.3,4c-0.1,0.1-0.2,0.1-0.4,0.1
	C23.3,10.5,23,10.3,22.9,10.1L22.9,10.1z"/>
</svg>
