<?xml version="1.0" encoding="utf-8"?>
<!-- Generator: Adobe Illustrator 24.2.0, SVG Export Plug-In . SVG Version: 6.00 Build 0)  -->
<svg version="1.1" id="Calque_1" xmlns="http://www.w3.org/2000/svg" xmlns:xlink="http://www.w3.org/1999/xlink" x="0px" y="0px"
	 viewBox="0 0 94 94" style="enable-background:new 0 0 94 94;" xml:space="preserve">
<style type="text/css">
	.st0{fill:#FFFFFF;}
	.st1{fill:#C0C0AC;}
</style>
<g transform="translate(-417 -4915)">
	<circle class="st0" cx="464" cy="4962" r="47"/>
	<path class="st1" d="M448.1,4949c-0.6,0-1.1,0.5-1.1,1.1c0,0.6,0.5,1.1,1.1,1.1h3.8c1.9,4.6,3.7,9.3,5.6,14l-1.7,4.1
		c-0.2,0.6,0,1.2,0.6,1.5c0.1,0.1,0.3,0.1,0.4,0.1h18.9c0.6,0,1.1-0.5,1.1-1.1c0-0.6-0.5-1.1-1.1-1.1h-17.2l1-2.3l18.2-1.5
		c0.5,0,0.9-0.4,1-0.9l2.3-9.8c0.1-0.6-0.3-1.3-1-1.4c0,0-0.1,0-0.1,0h-24.9l-1.2-3.1c-0.2-0.4-0.6-0.7-1.1-0.7L448.1,4949z
		 M455.9,4955h22.6l-1.8,7.6l-17.2,1.4L455.9,4955z M460.6,4972.4c-2.1,0-3.8,1.7-3.8,3.8c0,2.1,1.7,3.8,3.8,3.8s3.8-1.7,3.8-3.8
		c0,0,0,0,0,0C464.4,4974.1,462.7,4972.5,460.6,4972.4L460.6,4972.4z M471.9,4972.4c-2.1,0-3.8,1.7-3.8,3.8c0,2.1,1.7,3.8,3.8,3.8
		s3.8-1.7,3.8-3.8c0,0,0,0,0,0C475.7,4974.1,474,4972.4,471.9,4972.4L471.9,4972.4z M460.6,4974.7c0.8,0,1.5,0.7,1.5,1.5
		c0,0.8-0.7,1.5-1.5,1.5c-0.8,0-1.5-0.7-1.5-1.5C459.1,4975.4,459.7,4974.7,460.6,4974.7C460.6,4974.7,460.6,4974.7,460.6,4974.7
		L460.6,4974.7z M471.9,4974.7c0.8,0,1.5,0.7,1.5,1.5c0,0.8-0.7,1.5-1.5,1.5c-0.8,0-1.5-0.7-1.5-1.5
		C470.4,4975.4,471.1,4974.7,471.9,4974.7C471.9,4974.7,471.9,4974.7,471.9,4974.7z"/>
</g>
</svg>
