<?xml version="1.0" encoding="utf-8"?>
<!-- Generator: Adobe Illustrator 24.2.0, SVG Export Plug-In . SVG Version: 6.00 Build 0)  -->
<svg version="1.1" id="Calque_1" xmlns="http://www.w3.org/2000/svg" xmlns:xlink="http://www.w3.org/1999/xlink" x="0px" y="0px"
	 viewBox="0 0 94 94" style="enable-background:new 0 0 94 94;" xml:space="preserve">
<style type="text/css">
	.st0{fill:#FFFFFF;}
	.st1{fill:#C0C0AC;}
</style>
<g transform="translate(-355 -5226)">
	<circle class="st0" cx="402" cy="5273" r="47"/>
	<path class="st1" d="M412.8,5291c-0.3,0-0.7-0.1-0.9-0.4l-4.1-4.1l-3.7,3.6c-0.5,0.5-1.3,0.5-1.8,0c-0.1-0.1-0.2-0.3-0.3-0.5
		l-7-21.1c-0.2-0.7,0.1-1.4,0.8-1.6c0.3-0.1,0.5-0.1,0.8,0l21.1,7.2c0.7,0.2,1,0.9,0.8,1.6c-0.1,0.2-0.2,0.4-0.3,0.5l-3.6,3.6
		l4.1,4.1c0.5,0.5,0.5,1.3,0,1.8c0,0,0,0,0,0l-5,4.9C413.4,5290.9,413.1,5291,412.8,5291L412.8,5291z M407.8,5283.5
		c0.3,0,0.7,0.1,0.9,0.4l4.1,4.1l3.2-3.2l-4.1-4.1c-0.5-0.5-0.5-1.3,0-1.8c0,0,0,0,0,0l0,0l3.1-3.1l-16.7-5.7l5.6,16.8l3.1-3.1
		C407.2,5283.7,407.5,5283.5,407.8,5283.5L407.8,5283.5z M396.2,5276.4c-4.5,0-8.2-3.7-8.2-8.2c0-4.5,3.7-8.2,8.2-8.2
		c4.5,0,8.2,3.7,8.2,8.2v0.2l-2.6-0.9c-0.4-3.1-3.2-5.3-6.4-5c-3.1,0.4-5.3,3.2-5,6.4c0.3,2.6,2.3,4.6,4.9,4.9L396.2,5276.4
		L396.2,5276.4z"/>
</g>
</svg>
