<?xml version="1.0" encoding="utf-8"?>
<!-- Generator: Adobe Illustrator 24.2.0, SVG Export Plug-In . SVG Version: 6.00 Build 0)  -->
<svg version="1.1" id="Calque_1" xmlns="http://www.w3.org/2000/svg" xmlns:xlink="http://www.w3.org/1999/xlink" x="0px" y="0px"
	 viewBox="0 0 29 29" style="enable-background:new 0 0 29 29;" xml:space="preserve">
<style type="text/css">
	.st0{fill:#C0C0AC;}
</style>
<path class="st0" d="M0,14.5C0,6.5,6.5,0,14.5,0S29,6.5,29,14.5S22.5,29,14.5,29l0,0C6.5,29,0,22.5,0,14.5z M2.4,14.5
	c0,6.7,5.4,12.1,12.1,12.1s12.1-5.4,12.1-12.1c0-6.7-5.4-12.1-12.1-12.1C7.8,2.4,2.4,7.8,2.4,14.5C2.4,14.5,2.4,14.5,2.4,14.5z
	 M14.5,15.7c-0.7,0-1.2-0.5-1.2-1.2c0,0,0,0,0,0V6c0-0.7,0.5-1.2,1.2-1.2s1.2,0.5,1.2,1.2l0,0v7.3h4.8c0.7,0,1.2,0.5,1.2,1.2
	s-0.5,1.2-1.2,1.2H14.5z"/>
</svg>
