<svg xmlns="http://www.w3.org/2000/svg" xmlns:xlink="http://www.w3.org/1999/xlink" width="141" height="21.147" viewBox="0 0 141 21.147"><defs><clipPath id="a"><rect width="141" height="21.148" transform="translate(17.772 23.815)" fill="none"/></clipPath><clipPath id="b"><rect width="21.51" height="8.964" transform="translate(66.404 23.398)" fill="none"/></clipPath><clipPath id="c"><path d="M77.225,31.932l-6.56-7.141s-.749-.915.658-.951c1.423-.037,4.653,0,4.653,0a2.275,2.275,0,0,1,1.492.62c.849.8,6.384,7.478,6.384,7.478Z" fill="none"/></clipPath><linearGradient id="d" x1="-4.182" y1="3.218" x2="-4.155" y2="3.218" gradientUnits="objectBoundingBox"><stop offset="0" stop-color="#a3063f"/><stop offset="0.99" stop-color="#bd5e6b"/><stop offset="1" stop-color="#bd5e6b"/></linearGradient><clipPath id="e"><rect width="26.368" height="13.868" transform="translate(61.546 31.52)" fill="none"/></clipPath><clipPath id="f"><path d="M83.852,31.949,72.523,44.343a2.925,2.925,0,0,1-2.063.62h-4.3a.591.591,0,0,1-.463-.243c-.137-.178-.144-.444.2-.874.658-.826,10.857-11.9,10.857-11.9Z" fill="none"/></clipPath><linearGradient id="g" x1="-2.779" y1="1.918" x2="-2.759" y2="1.918" xlink:href="#d"/></defs><g transform="translate(-17.772 -23.815)"><g clip-path="url(#a)"><path d="M156.179,37.786h2.593V25.926h-2.334l-4.706,5.285-4.705-5.285h-2.334v11.86h2.594V29.781l4.2,4.779h.464l4.224-4.779Zm-22.286-11.86H131.3V32.78c0,3.017,1.982,5.2,5.705,5.2,3.761,0,5.762-2.407,5.762-5.2V25.926h-2.594v6.68A2.865,2.865,0,0,1,137,35.71a2.8,2.8,0,0,1-3.112-3.087Zm-7.114,11.86h2.594V25.926h-2.594ZM121,33.146c1.13.3,1.8.611,1.8,1.256,0,.784-.853,1.325-2.372,1.325a7.833,7.833,0,0,1-3.89-1.116l-.612,2.32a10.507,10.507,0,0,0,4.446,1.029c3.038,0,5.132-1.518,5.132-3.749,0-1.692-1.112-2.668-3.39-3.279l-2.334-.628c-.907-.244-1.371-.506-1.371-1.151,0-.68.667-1.151,2.26-1.151a8.274,8.274,0,0,1,3.872.994l.742-2.285a10.875,10.875,0,0,0-4.52-.942c-3.465,0-5.039,1.622-5.039,3.593,0,1.6.982,2.7,2.89,3.174ZM104.77,31.873a3.93,3.93,0,1,1,3.928,3.8,3.752,3.752,0,0,1-3.928-3.8m-2.556,0a6.146,6.146,0,0,0,6.465,6.086c3.724,0,6.5-2.616,6.5-6.086a6.495,6.495,0,0,0-12.968,0m-5.205-3.82a2.112,2.112,0,0,1,2.3,2.18,2.134,2.134,0,0,1-2.3,2.145h-3.02V28.054ZM91.4,37.786h2.593V34.507h3.427a4.265,4.265,0,0,0,4.576-4.256c0-2.965-2.112-4.326-4.576-4.326H91.4Z" fill="#00132a"/><path d="M70.329,37.8V35.654H62.834V32.79h6.141V30.642H62.834V28.075h7.495V25.926H60.348V37.8Zm-14.656,0h2.6V25.926H55.933l-4.713,5.292-4.713-5.292H44.171V37.8h2.6V29.786l4.211,4.785h.464l4.23-4.785ZM32.446,31.882a3.756,3.756,0,0,1,3.932-3.807,3.809,3.809,0,1,1,0,7.615,3.776,3.776,0,0,1-3.932-3.807m-2.561,0a6.154,6.154,0,0,0,6.474,6.1c3.729,0,6.512-2.62,6.512-6.1a6.171,6.171,0,0,0-6.512-6.13,6.161,6.161,0,0,0-6.474,6.13" fill="#00132a"/><path d="M28.565,27.539a5.082,5.082,0,0,0-4.3-1.787c-3.729,0-6.493,2.27-6.493,6.13,0,3.825,2.764,6.1,6.493,6.1a8.1,8.1,0,0,0,5.176-1.921l-1.224-1.834a6.106,6.106,0,0,1-3.9,1.485,3.561,3.561,0,0,1-3.859-3.825,3.546,3.546,0,0,1,3.766-3.86,2.683,2.683,0,0,1,2.232.9Z" fill="#00132a"/><path d="M76.786,31.944,70.665,24.8s-.746-.868.658-.95,4.653,0,4.653,0a2.277,2.277,0,0,1,1.492.62c.849.8,6.384,7.477,6.384,7.477Z" fill="#a3063f"/><path d="M83.852,31.949,72.523,44.343a2.925,2.925,0,0,1-2.063.62h-4.3a.592.592,0,0,1-.464-.243c-.136-.178-.144-.444.2-.874.658-.826,10.892-11.9,10.892-11.9Z" fill="#a3063f"/><g opacity="0.7"><g clip-path="url(#b)"><g clip-path="url(#c)"><rect width="16.25" height="14.622" transform="matrix(0.772, -0.636, 0.636, 0.772, 65.675, 27.094)" fill="url(#d)"/></g></g></g><g opacity="0.7"><g clip-path="url(#e)"><g clip-path="url(#f)"><rect width="22.225" height="21.586" transform="translate(58.809 39.896) rotate(-51.4)" fill="url(#g)"/></g></g></g><path d="M84.682,31.477l-2.69-3.127s1.345-1.572,1.594-1.876a2.156,2.156,0,0,1,1.528-.675h3.21a.654.654,0,0,1,.57.351.507.507,0,0,1-.093.574c-.651.73-4.118,4.753-4.118,4.753" fill="#00132a"/><path d="M84.682,32.758l-2.691,3.064,1,1.308a2.578,2.578,0,0,0,1.78.834h3.046a.664.664,0,0,0,.516-.259.578.578,0,0,0-.032-.664c-.489-.57-3.62-4.284-3.62-4.284" fill="#00132a"/></g></g></svg>