<?xml version="1.0" encoding="utf-8"?>
<!-- Generator: Adobe Illustrator 24.2.0, SVG Export Plug-In . SVG Version: 6.00 Build 0)  -->
<svg version="1.1" id="Calque_1" xmlns="http://www.w3.org/2000/svg" xmlns:xlink="http://www.w3.org/1999/xlink" x="0px" y="0px"
	 viewBox="0 0 28 28" style="enable-background:new 0 0 28 28;" xml:space="preserve">
<style type="text/css">
	.st0{fill:#657064;}
	.st1{fill:#FFFFFF;}
</style>
<g transform="translate(-357 -3146)">
	<circle class="st0" cx="371" cy="3160" r="14"/>
	<rect x="368.2" y="3165.6" class="st1" width="6.8" height="1.6"/>
	<path class="st1" d="M370.9,3163c0.3,0.3,0.9,0.3,1.2,0l3.9-3.8c0.6-0.6-0.3-1.5-1-0.9l-2.7,2.6c-0.1,0.1-0.2,0.1-0.2-0.1v-7.1
		c0-0.4-0.3-0.7-0.7-0.7c0,0,0,0,0,0l0,0c-0.4,0-0.7,0.3-0.7,0.7v7.1c0,0.2-0.1,0.2-0.2,0.1l-2.7-2.6c-0.6-0.6-1.6,0.3-1,0.9
		L370.9,3163z"/>
</g>
</svg>
