<?xml version="1.0" encoding="utf-8"?>
<!-- Generator: Adobe Illustrator 24.2.0, SVG Export Plug-In . SVG Version: 6.00 Build 0)  -->
<svg version="1.1" id="Calque_1" xmlns="http://www.w3.org/2000/svg" xmlns:xlink="http://www.w3.org/1999/xlink" x="0px" y="0px"
	 viewBox="0 0 94 94" style="enable-background:new 0 0 94 94;" xml:space="preserve">
<style type="text/css">
	.st0{fill:#FFFFFF;}
	.st1{fill:#C0C0AC;}
</style>
<g transform="translate(-972 -5402)">
	<circle class="st0" cx="1019" cy="5449" r="47"/>
	<path class="st1" d="M1009.4,5460c-0.8,0-1.4-0.6-1.4-1.4v-5.8c0-0.8,0.6-1.4,1.4-1.4s1.4,0.6,1.4,1.4v4.3h17.2v-4.3
		c0-0.8,0.6-1.4,1.4-1.4s1.4,0.6,1.4,1.4v5.8c0,0.8-0.6,1.4-1.4,1.4c0,0,0,0,0,0L1009.4,5460z M1018.5,5453.8l-5.8-5.8
		c-0.5-0.6-0.4-1.5,0.2-2c0.5-0.5,1.3-0.5,1.9,0l3.3,3.3v-10.9c0-0.8,0.6-1.4,1.4-1.4s1.4,0.6,1.4,1.4v10.9l3.3-3.3
		c0.6-0.5,1.5-0.4,2,0.2c0.5,0.5,0.5,1.3,0,1.9l-5.7,5.7c-0.3,0.3-0.7,0.5-1.1,0.5h0C1019.1,5454.2,1018.7,5454.1,1018.5,5453.8
		L1018.5,5453.8z"/>
</g>
</svg>
