<?xml version="1.0" encoding="utf-8"?>
<!-- Generator: Adobe Illustrator 24.2.0, SVG Export Plug-In . SVG Version: 6.00 Build 0)  -->
<svg version="1.1" id="Calque_1" xmlns="http://www.w3.org/2000/svg" xmlns:xlink="http://www.w3.org/1999/xlink" x="0px" y="0px"
	 viewBox="0 0 50 48" style="enable-background:new 0 0 50 48;" xml:space="preserve">
<style type="text/css">
	.st0{fill:#424242;}
</style>
<path class="st0" d="M13.4,48V28.5h10V48L13.4,48z M14.9,46.3h6.8V30.1h-6.8V46.3z M0,48V33.8h10V48L0,48z M1.6,46.3h6.8V35.4H1.6
	V46.3z M40,47.9v-35h10v35H40z M41.6,46.3h6.8V14.5h-6.8V46.3z M26.6,47.9V24h10v23.8H26.6z M28.2,46.3H35V25.6h-6.8V46.3z M3,25.5
	H2.5l0.1-1.6c0.3,0,26.1,0.7,34.1-21.3l-3.7,2l-0.7-1.4L38.4,0l3.3,6.1l-1.4,0.7l-2-3.8C30.9,24,8.4,25.5,3.5,25.5
	C3.3,25.5,3.1,25.5,3,25.5z"/>
</svg>
