<?xml version="1.0" encoding="utf-8"?>
<!-- Generator: Adobe Illustrator 24.2.0, SVG Export Plug-In . SVG Version: 6.00 Build 0)  -->
<svg version="1.1" id="Calque_1" xmlns="http://www.w3.org/2000/svg" xmlns:xlink="http://www.w3.org/1999/xlink" x="0px" y="0px"
	 viewBox="0 0 15 15" style="enable-background:new 0 0 15 15;" xml:space="preserve">
<style type="text/css">
	.st0{fill:#424242;}
</style>
<path class="st0" d="M4.1,15C1.9,15,0,13.1,0,10.9V4.1C0,1.9,1.9,0,4.1,0h6.7C13.1,0,15,1.9,15,4.1v6.7c0,2.3-1.9,4.1-4.1,4.1H4.1z
	 M1.3,4.1v6.7c0,1.6,1.3,2.8,2.8,2.8h6.7c1.6,0,2.8-1.3,2.8-2.8V4.1c0-1.6-1.3-2.8-2.8-2.8H4.1C2.6,1.3,1.3,2.6,1.3,4.1L1.3,4.1z
	 M3.6,7.5c0-2.1,1.7-3.9,3.9-3.9s3.9,1.7,3.9,3.9c0,2.1-1.7,3.9-3.9,3.9C5.4,11.4,3.6,9.6,3.6,7.5L3.6,7.5z M5,7.5
	C5,8.9,6.1,10,7.5,10C8.9,10,10,8.9,10,7.5S8.9,5,7.5,5C6.1,5,5,6.1,5,7.5L5,7.5z M10.8,4.2c-0.4-0.4-0.4-1,0-1.4
	c0.2-0.2,0.4-0.3,0.7-0.3c0.5,0,1,0.4,1,1c0,0.3-0.1,0.5-0.3,0.7C11.8,4.6,11.2,4.6,10.8,4.2L10.8,4.2z"/>
</svg>
