<?xml version="1.0" encoding="utf-8"?>
<!-- Generator: Adobe Illustrator 24.2.0, SVG Export Plug-In . SVG Version: 6.00 Build 0)  -->
<svg version="1.1" id="Calque_1" xmlns="http://www.w3.org/2000/svg" xmlns:xlink="http://www.w3.org/1999/xlink" x="0px" y="0px"
	 viewBox="0 0 50 50" style="enable-background:new 0 0 50 50;" xml:space="preserve">
<style type="text/css">
	.st0{fill:#424242;}
	.st1{fill:#FFFFFF;}
</style>
<g transform="translate(-550.85 -6391)">
	<ellipse class="st0" cx="575.8" cy="6416" rx="25" ry="25"/>
	<path class="st1" d="M570.6,6428c-3.4,0-6.3-2.8-6.3-6.2v-10.1c0-3.4,2.8-6.2,6.3-6.2h10.2c3.4,0,6.3,2.8,6.3,6.2v10.1
		c0,3.4-2.8,6.2-6.3,6.2L570.6,6428z M566.4,6411.7v10.1c0,2.3,1.9,4.2,4.3,4.2h10.2c2.3,0,4.2-1.9,4.3-4.2v-10.1
		c0-2.3-1.9-4.2-4.3-4.2h-10.2C568.3,6407.5,566.4,6409.4,566.4,6411.7z M569.9,6416.7c0-3.2,2.5-5.9,5.8-5.9c3.2,0,5.9,2.5,5.9,5.8
		c0,3.2-2.5,5.9-5.8,5.9c0,0-0.1,0-0.1,0C572.5,6422.5,569.9,6420,569.9,6416.7L569.9,6416.7z M571.9,6416.7c0,2.1,1.7,3.9,3.8,3.9
		s3.9-1.7,3.9-3.8c0-2.1-1.7-3.9-3.8-3.9c0,0,0,0-0.1,0C573.6,6412.9,571.9,6414.6,571.9,6416.7L571.9,6416.7z M580.8,6411.8
		c-0.6-0.6-0.6-1.5,0-2c0,0,0,0,0,0c0.6-0.6,1.5-0.6,2.1,0c0.6,0.6,0.6,1.5,0,2c0,0,0,0,0,0C582.3,6412.3,581.4,6412.3,580.8,6411.8
		z"/>
</g>
</svg>
