<?xml version="1.0" encoding="utf-8"?>
<!-- Generator: Adobe Illustrator 24.2.0, SVG Export Plug-In . SVG Version: 6.00 Build 0)  -->
<svg version="1.1" id="Calque_1" xmlns="http://www.w3.org/2000/svg" xmlns:xlink="http://www.w3.org/1999/xlink" x="0px" y="0px"
	 viewBox="0 0 94 94" style="enable-background:new 0 0 94 94;" xml:space="preserve">
<style type="text/css">
	.st0{fill:#657064;}
	.st1{fill:#FFFFFF;}
</style>
<g transform="translate(-972 -5047)">
	<circle class="st0" cx="1019" cy="5094" r="47"/>
	<path class="st1" d="M1011.7,5110c-4.3-0.1-7.8-3.6-7.7-8V5086c-0.1-4.3,3.4-7.9,7.7-8h15.5c4.3,0.1,7.8,3.6,7.7,8v16.1
		c0.1,4.3-3.4,7.9-7.7,8H1011.7z M1006.9,5102c0,2.7,2.1,5,4.9,5h15.5c2.7,0,4.9-2.3,4.9-5v-10.4h-5.8c0.5,1,0.7,2.1,0.7,3.2
		c0.1,4.1-3.1,7.4-7.2,7.6s-7.4-3.1-7.6-7.2c0-0.1,0-0.3,0-0.4c0-1.1,0.2-2.2,0.7-3.2h-6.1L1006.9,5102z M1015,5095c0,2.8,2.2,5,5,5
		c2.8,0,5-2.2,5-5c0-2.7-2.2-5-5-5C1017.2,5090,1015,5092.3,1015,5095L1015,5095z M1023.9,5088.7h8.2v-2.7c0-2.7-2.1-5-4.9-5h-15.5
		c-2.7,0-4.9,2.3-4.9,5v2.7h8.5C1017.9,5086.8,1021.4,5086.8,1023.9,5088.7L1023.9,5088.7z M1026.4,5087.2c-0.5,0-0.9-0.4-0.9-0.9
		v-2.7c0-0.5,0.4-0.9,0.9-0.9h2.7c0.5,0,0.9,0.4,0.9,0.9v2.7c0,0.5-0.4,0.9-0.9,0.9H1026.4z"/>
</g>
</svg>
