<svg xmlns="http://www.w3.org/2000/svg" width="56.998" height="53.986" viewBox="0 0 56.998 53.986"><path d="M1148.8,1406.305c.1.035,3.528,1.281,9.147,2.727v4.986h-3.217a1.185,1.185,0,0,0-1.187,1.182v9.345c-2.754,1.617-4.106,4.749-4.106,9.547,0,7.972,3.868,20.023,9.7,20.023s9.7-12.051,9.7-20.023c0-4.8-1.351-7.93-4.106-9.547V1415.2a1.185,1.185,0,0,0-1.187-1.182h-3.217v-4.4a138.309,138.309,0,0,0,29.791,3.872v4.411h-3.217a1.185,1.185,0,0,0-1.187,1.182v9.345c-2.754,1.617-4.106,4.749-4.106,9.547,0,7.971,3.868,20.023,9.7,20.023s9.7-12.052,9.7-20.023c0-4.8-1.351-7.93-4.106-9.547v-9.345a1.184,1.184,0,0,0-1.187-1.182h-3.218V1413.5a100,100,0,0,0,11.495-.724,1.182,1.182,0,1,0-.293-2.345c-27.3,3.38-53.8-6.241-54.063-6.339a1.182,1.182,0,1,0-.826,2.216Zm17.657,27.787c0,8.088-3.969,17.66-7.323,17.66s-7.323-9.572-7.323-17.66c0-5.512,1.937-7.127,3.5-7.81h7.654C1164.517,1426.965,1166.454,1428.58,1166.454,1434.092Zm-4.106-10.173h-6.435v-7.537h6.435Zm36.272,14.06c0,8.087-3.969,17.661-7.323,17.661s-7.323-9.573-7.323-17.661c0-5.511,1.937-7.127,3.5-7.81h7.653C1196.683,1430.852,1198.621,1432.467,1198.621,1437.979Zm-4.106-10.173h-6.435v-7.537h6.435Z" transform="translate(-1148.023 -1404.016)" fill="#fff"/></svg>