<svg viewBox="0 0 279.82 216.17" xmlns="http://www.w3.org/2000/svg"><path d="m154 59.29a2.85 2.85 0 0 0 0-4.06 2.85 2.85 0 0 0 -4.06 0 2.87 2.87 0 0 0 4.06 4.06z" fill="#204071"/><path d="m124.18 58.19h1.89l-.95-2.28z" fill="#204071"/><path d="m68.66 92.63h9.77l-4.89-11.78z" fill="#204071"/><path d="m248 49-107.28-49-107.26 49v121.79l107.26 44.52 36.22-15 5.89 14 23.76-12.87 22.34-7.21-5.11-13.34 24.18-10zm-47.93 27.88a1.38 1.38 0 0 1 .46-1.06 1.35 1.35 0 0 1 1-.45h14a1.41 1.41 0 0 1 1.07.46 1.43 1.43 0 0 1 .43 1 1.49 1.49 0 0 1 -1.5 1.5h-12.46v8.67h9.21a1.42 1.42 0 0 1 1.06.46 1.39 1.39 0 0 1 .44 1 1.52 1.52 0 0 1 -1.5 1.5h-9.21v8.56h12.46a1.52 1.52 0 0 1 1.47 1.48 1.41 1.41 0 0 1 -.46 1.07 1.36 1.36 0 0 1 -1 .43h-14a1.43 1.43 0 0 1 -1.06-.45 1.37 1.37 0 0 1 -.44-1zm3 53.08a1.44 1.44 0 0 1 1.07.46 1.43 1.43 0 0 1 .44 1.05 1.44 1.44 0 0 1 -.46 1.07 1.43 1.43 0 0 1 -1 .44h-9.22v8.56h12.47a1.49 1.49 0 0 1 1 2.57 1.35 1.35 0 0 1 -1 .44h-14a1.54 1.54 0 0 1 -1.5-1.5v-23.15a1.44 1.44 0 0 1 .45-1.07 1.36 1.36 0 0 1 1-.44h14a1.44 1.44 0 0 1 1.07.45 1.48 1.48 0 0 1 .43 1.05 1.51 1.51 0 0 1 -.45 1.08 1.47 1.47 0 0 1 -1 .43h-12.47v8.6zm-22.61-52.96a1.46 1.46 0 0 1 .43-1.06 1.5 1.5 0 0 1 2.56 1.06v21.54h11a1.5 1.5 0 1 1 0 3h-12.45a1.45 1.45 0 0 1 -1.5-1.5zm-17-23.55a.95.95 0 0 1 1.69-.58l4.26 5.48v-4.9a1 1 0 0 1 .26-.66.92.92 0 0 1 .67-.27.92.92 0 0 1 .67.27.91.91 0 0 1 .27.66v7.76a.68.68 0 0 1 0 .22v.05a.46.46 0 0 1 -.1.18h-.05a.26.26 0 0 1 -.1.11l-.07.06a.21.21 0 0 1 -.1.06.61.61 0 0 1 -.13.06l-.22.05h-.1-.19-.22l-.2-.11c-.07-.05-.09-.06-.11-.09l-.08-.08-4.26-5.49v4.9a1 1 0 0 1 -.28.68.93.93 0 0 1 -.65.25 1 1 0 0 1 -.7-.28.91.91 0 0 1 -.26-.65zm-2.7 23.55a1.43 1.43 0 0 1 .43-1.06 1.5 1.5 0 0 1 2.13 0 1.45 1.45 0 0 1 .43 1.06v21.54h11a1.47 1.47 0 0 1 1.05.43 1.43 1.43 0 0 1 .45 1.06 1.46 1.46 0 0 1 -.45 1.08 1.44 1.44 0 0 1 -1.05.42h-12.49a1.53 1.53 0 0 1 -1.06-.41 1.56 1.56 0 0 1 -.44-1.09zm-1.92 31.8 5.12 2.64a1.23 1.23 0 0 1 .61.73 1.22 1.22 0 0 1 -1.17 1.59 1.16 1.16 0 0 1 -.56-.13l-4.56-2.35-4.57 2.35a1.17 1.17 0 0 1 -.55.13 1.22 1.22 0 0 1 -1.1-.66 1.23 1.23 0 0 1 -.08-.94 1.21 1.21 0 0 1 .61-.72l5.12-2.64a1.32 1.32 0 0 1 1.13-.03zm-7.63-7.69a1.39 1.39 0 0 1 -.44-1v-23.11a1.4 1.4 0 0 1 .45-1.06 1.46 1.46 0 0 1 1.05-.44 1.45 1.45 0 0 1 1.06.45 1.39 1.39 0 0 1 .44 1v23a1.43 1.43 0 0 1 -.46 1.07 1.49 1.49 0 0 1 -2.11 0zm-15.71-47.65a.92.92 0 0 1 .27-.67 1 1 0 0 1 1.62.67v6.68h3.17a.91.91 0 0 1 .67.28.92.92 0 0 1 .28.66.91.91 0 0 1 -.28.67.93.93 0 0 1 -.67.28h-4.12a.94.94 0 0 1 -.94-1zm-26.26-.14a3.18 3.18 0 0 1 2.19-.83 3.92 3.92 0 0 1 1.92.46 2.57 2.57 0 0 1 1.39 1.69.92.92 0 0 1 -.1.71.93.93 0 0 1 -1.3.33.92.92 0 0 1 -.43-.57.82.82 0 0 0 -.49-.53 2.25 2.25 0 0 0 -.92-.21 1.46 1.46 0 0 0 -1 .34 1 1 0 0 0 -.38.78.55.55 0 0 0 .18.45 1.63 1.63 0 0 0 1.18.38 3.44 3.44 0 0 1 2.53 1 2.48 2.48 0 0 1 .69 1.84 2.9 2.9 0 0 1 -1 2.07 3.14 3.14 0 0 1 -2.19.84 4.06 4.06 0 0 1 -1.92-.45 2.63 2.63 0 0 1 -1.39-1.7 1 1 0 0 1 .08-.7 1 1 0 0 1 .6-.45 1 1 0 0 1 .7.09.93.93 0 0 1 .44.59.86.86 0 0 0 .5.53 2.36 2.36 0 0 0 1 .2 1.29 1.29 0 0 0 .91-.34 1.06 1.06 0 0 0 .39-.77.59.59 0 0 0 -.19-.45 1.6 1.6 0 0 0 -1.17-.38h-.31a3.31 3.31 0 0 1 -2.28-.95 2.47 2.47 0 0 1 -.69-1.84 2.9 2.9 0 0 1 1.06-2.13zm-43.88 47.29a1.4 1.4 0 0 1 -1.38.92h-.21a.58.58 0 0 1 -.19 0l-.19-.09a1.42 1.42 0 0 1 -.8-.81 1.4 1.4 0 0 1 0-1.15l2.41-5.88s0 0 0 0l7.13-17.19s0-.07 0-.1 0-.07 0-.11a.46.46 0 0 1 .09-.12l.18-.08a.35.35 0 0 1 .07-.09.8.8 0 0 1 .16-.13l.11-.09a1.63 1.63 0 0 1 .52-.21h.16a.4.4 0 0 1 .27 0 .11.11 0 0 1 .08 0h.07a1.36 1.36 0 0 1 .54.23l.09.06a.3.3 0 0 1 .09.08.59.59 0 0 1 .1.11.76.76 0 0 1 .11.14c0 .09.08.16.11.22l9.57 23.1a1.49 1.49 0 0 1 0 1.17 1.41 1.41 0 0 1 -.82.8 1.45 1.45 0 0 1 -.57.11 1.39 1.39 0 0 1 -1.38-.93l-2.07-5h-12.18zm20 29.35a1.44 1.44 0 0 1 1.07.46 1.4 1.4 0 0 1 .44 1.05 1.42 1.42 0 0 1 -.46 1.07 1.41 1.41 0 0 1 -1.05.44h-9.22v8.56h12.47a1.54 1.54 0 0 1 1.5 1.51 1.52 1.52 0 0 1 -1.5 1.5h-14a1.41 1.41 0 0 1 -1.07-.46 1.44 1.44 0 0 1 -.44-1v-23.19a1.48 1.48 0 0 1 .46-1.07 1.39 1.39 0 0 1 1-.44h14a1.52 1.52 0 0 1 1.5 1.5 1.5 1.5 0 0 1 -1.5 1.51h-12.47v8.6zm6.64-29.96a1.41 1.41 0 0 1 -.45 1.06 1.39 1.39 0 0 1 -1 .44 1.52 1.52 0 0 1 -1.55-1.5v-23a1.52 1.52 0 0 1 1.49-1.5 1.5 1.5 0 0 1 1.08.45 1.45 1.45 0 0 1 .43 1.05zm23.4 43.08a.92.92 0 0 1 0 .19.36.36 0 0 1 0 .1 1.38 1.38 0 0 1 -.06.16.9.9 0 0 1 -.12.24l-.06.09-.11.14-.17.15-.12.08a.59.59 0 0 1 -.16.08.34.34 0 0 1 -.12 0h-.17-.21a1.33 1.33 0 0 1 -.28 0h-.12l-.16-.06-.16-.09-.14-.09c-.1-.08-.13-.1-.14-.12a.21.21 0 0 1 -.08-.06l-15.57-19.62v18.78a1.45 1.45 0 0 1 -.46 1.06 1.41 1.41 0 0 1 -1 .43 1.46 1.46 0 0 1 -1.07-.45 1.35 1.35 0 0 1 -.44-1v-23.21a1.5 1.5 0 0 1 2.69-.93l15.29 19.7v-18.77a1.47 1.47 0 0 1 .44-1.06 1.49 1.49 0 0 1 2.13 0 1.45 1.45 0 0 1 .43 1.06zm4.7-43.08a1.44 1.44 0 0 1 -.44 1.06 1.46 1.46 0 0 1 -1.07.44 1.5 1.5 0 0 1 -1.08-.44 1.46 1.46 0 0 1 -.42-1.06v-.2a12.77 12.77 0 0 1 -6.5 1.7 13.08 13.08 0 1 1 0-26.15 12.82 12.82 0 0 1 8 2.69 1.53 1.53 0 0 1 .58 1 1.44 1.44 0 0 1 -.31 1.13 1.5 1.5 0 0 1 -2.1.27 9.84 9.84 0 0 0 -6.13-2.09 10.06 10.06 0 1 0 6.5 17.75v-6.78h-8.38a1.54 1.54 0 0 1 -1.07-.41 1.49 1.49 0 0 1 -.46-1.09 1.44 1.44 0 0 1 .46-1.06 1.46 1.46 0 0 1 1.07-.44h9.88a1.47 1.47 0 0 1 1.07.45 1.4 1.4 0 0 1 .44 1zm2.73-38.58a.92.92 0 0 1 -.83.58 1 1 0 0 1 -.32-.06h-.06a1 1 0 0 1 -.5-.52.89.89 0 0 1 0-.73l3.15-7.62a.52.52 0 0 1 .07-.12.32.32 0 0 1 .08-.12l.1-.11h.06a.92.92 0 0 1 .35-.14h.29a.88.88 0 0 1 .42.16l.09.07a.6.6 0 0 1 .08.08.72.72 0 0 1 .11.15.35.35 0 0 1 .06.14l3.16 7.61a.91.91 0 0 1 0 .74.93.93 0 0 1 -.51.5 1 1 0 0 1 -.35.07.91.91 0 0 1 -.87-.59l-.57-1.36h-3.44zm3.08 31v-15.42a1.42 1.42 0 0 1 .44-1 1.47 1.47 0 0 1 2.09 0 1.41 1.41 0 0 1 .43 1v15.5a6.13 6.13 0 0 0 12.26 0v-15.5a1.45 1.45 0 0 1 .43-1 1.49 1.49 0 0 1 2.09 0 1.46 1.46 0 0 1 .44 1.06v15.5a9.09 9.09 0 0 1 -18.18 0zm20.78 28.58a1.49 1.49 0 0 1 -1.06.43h-12.46v8.57h9.21a1.44 1.44 0 0 1 1.06.46 1.37 1.37 0 0 1 .44 1.05 1.4 1.4 0 0 1 -.45 1.07 1.44 1.44 0 0 1 -1.05.44h-9.21v10.07a1.4 1.4 0 0 1 -.46 1.06 1.37 1.37 0 0 1 -1.05.44 1.54 1.54 0 0 1 -1.5-1.5v-23.19a1.54 1.54 0 0 1 1.47-1.51h14a1.52 1.52 0 0 1 1.5 1.5 1.47 1.47 0 0 1 -.44 1.11zm.48-63.75a4.78 4.78 0 1 1 1.4 3.37 4.61 4.61 0 0 1 -1.4-3.36zm15.17 72.75a1.42 1.42 0 0 1 1.07.46 1.4 1.4 0 0 1 .44 1.05 1.44 1.44 0 0 1 -.46 1.07 1.4 1.4 0 0 1 -1 .44h-9.21v8.56h12.42a1.37 1.37 0 0 1 1.06.46 1.39 1.39 0 0 1 .44 1.05 1.44 1.44 0 0 1 -.45 1.06 1.42 1.42 0 0 1 -1.05.44h-14a1.43 1.43 0 0 1 -1.08-.46 1.45 1.45 0 0 1 -.44-1v-23.23a1.48 1.48 0 0 1 .46-1.07 1.39 1.39 0 0 1 1-.44h14a1.52 1.52 0 0 1 1.5 1.5 1.5 1.5 0 0 1 -1.5 1.51h-12.47v8.6zm7-9a1.5 1.5 0 0 1 -.44-1.07 1.43 1.43 0 0 1 .43-1.05 1.47 1.47 0 0 1 1.07-.45h16a1.52 1.52 0 0 1 1.5 1.5 1.44 1.44 0 0 1 -.45 1.07 1.48 1.48 0 0 1 -1.05.42h-6.5v21.63a1.47 1.47 0 0 1 -1.5 1.5 1.44 1.44 0 0 1 -1.05-.43 1.5 1.5 0 0 1 -.44-1.07v-21.63h-6.5a1.5 1.5 0 0 1 -1.06-.42z" fill="#204071"/><g fill="#7bb8d1"><path d="m171.54 187.5 11.29 26.74 23.76-12.87 22.34-7.21-10.2-26.61zm39.12-12.56a1 1 0 0 1 .56-.56l4.25-1.75a1.05 1.05 0 0 1 .79 2c-1.08.43-2.13.87-3.17 1.3l-1.06.44a1 1 0 0 1 -.41.08 1.07 1.07 0 0 1 -1-.65 1 1 0 0 1 .04-.86zm-7.88 3 .88-.38 3.33-1.41a1.05 1.05 0 1 1 .83 1.93l-4.2 1.78a1.09 1.09 0 0 1 -.41.09 1.05 1.05 0 0 1 -.4-2zm-8.42 3.62 4.21-1.82a1.07 1.07 0 0 1 1.38.56 1.05 1.05 0 0 1 -.55 1.38l-4.2 1.81a1.05 1.05 0 0 1 -.84-1.93zm-16.43 9.16a1 1 0 0 1 -1-.65 1.06 1.06 0 0 1 0-.82 1 1 0 0 1 .58-.55l4.21-1.75a1 1 0 0 1 .81 0 1.06 1.06 0 0 1 .57.57 1 1 0 0 1 0 .8 1 1 0 0 1 -.57.58l-4.24 1.74a1 1 0 0 1 -.36.08zm10.95 7.56a3.39 3.39 0 0 1 -1.63 1.71h-.09a.2.2 0 0 1 -.11 0l-1.85.8 1.34 3.16a.84.84 0 0 1 0 .71.85.85 0 0 1 -.47.46.81.81 0 0 1 -.33.07 1 1 0 0 1 -.83-.54l-3.38-8a.89.89 0 0 1 .47-1.17l2.77-1.17a3.3 3.3 0 0 1 2.47-.08 2.87 2.87 0 0 1 1.74 1.63 2.9 2.9 0 0 1 -.1 2.42zm-1.18-11.56-.91.39a1.11 1.11 0 0 1 -.42.08 1 1 0 0 1 -1-.64 1 1 0 0 1 0-.79 1 1 0 0 1 .57-.59l4.19-1.8a1.07 1.07 0 0 1 1.39.56 1 1 0 0 1 -.55 1.37zm11.58 12.28a.88.88 0 0 1 -.28.2.79.79 0 0 1 -1-.19l-1.28-1.26-3.82 1.63v1.8a.85.85 0 0 1 -.54.82h-.05a.65.65 0 0 1 -.19 0h-.12a.84.84 0 0 1 -.61-.27.82.82 0 0 1 -.25-.64l-.07-9.35a1 1 0 0 1 0-.3s0 0 0-.09l.05-.07a.7.7 0 0 1 .27-.27.33.33 0 0 1 .22-.1.19.19 0 0 1 .1 0h.34.15a.24.24 0 0 1 .15.08.61.61 0 0 1 .14.13l5 4.88.05.05 1.66 1.63a.87.87 0 0 1 0 1.25zm8.43-3.59a.89.89 0 0 1 -1.25.09l-3.26-2.81-1.29.55 1.32 3.14a.81.81 0 0 1 0 .68.83.83 0 0 1 -.47.47.81.81 0 0 1 -.34.08.91.91 0 0 1 -.32-.06.83.83 0 0 1 -.49-.5l-3.35-7.91a.86.86 0 0 1 .46-1.15l2.75-1.17a3.35 3.35 0 0 1 2.45-.09 2.85 2.85 0 0 1 1.73 1.63 2.8 2.8 0 0 1 0 2.13 3 3 0 0 1 -.84 1.29l2.76 2.39a.84.84 0 0 1 .3.61.79.79 0 0 1 -.16.66zm4.54-2.1a.85.85 0 0 1 -.47.48.94.94 0 0 1 -.34.07.77.77 0 0 1 -.36-.09.8.8 0 0 1 -.46-.46l-3.37-8a.83.83 0 0 1 0-.69.88.88 0 0 1 .47-.48.89.89 0 0 1 .7 0 .83.83 0 0 1 .47.47l3.36 8a.83.83 0 0 1 0 .73zm8.18-6.58a3.1 3.1 0 0 1 -.1 2.46 3.39 3.39 0 0 1 -1.82 1.75 4.67 4.67 0 0 1 -1.78.38 2.11 2.11 0 0 1 -.35 0 2.75 2.75 0 0 1 -2.06-1.09.94.94 0 0 1 -.19-.62.9.9 0 0 1 .35-.61.88.88 0 0 1 .55-.19.45.45 0 0 1 .14 0 .87.87 0 0 1 .55.32 1.15 1.15 0 0 0 .89.42h.11a2.9 2.9 0 0 0 1.09-.24 1.65 1.65 0 0 0 .91-.85 1.37 1.37 0 0 0 .06-1.12.86.86 0 0 0 -.49-.5 2 2 0 0 0 -1.55.13 3.68 3.68 0 0 1 -3 .14 2.64 2.64 0 0 1 -1.45-1.5 3.15 3.15 0 0 1 .12-2.48 3.32 3.32 0 0 1 1.81-1.74 4.45 4.45 0 0 1 2.12-.36 2.78 2.78 0 0 1 2.08 1.08.89.89 0 0 1 .17.65.86.86 0 0 1 -.34.59.81.81 0 0 1 -.52.19h-.13a.87.87 0 0 1 -.59-.35 1.12 1.12 0 0 0 -.88-.4h-.13a2.83 2.83 0 0 0 -1.09.24 1.66 1.66 0 0 0 -.89.84 1.39 1.39 0 0 0 -.02 1.13.84.84 0 0 0 .49.49 2 2 0 0 0 1.47-.1h.11a3.58 3.58 0 0 1 2.89-.11 2.56 2.56 0 0 1 1.47 1.48z"/><path d="m203.3 188.43a1.56 1.56 0 0 0 -1.14 0l-1.93.81 1 2.35 2-.84a1.51 1.51 0 0 0 .8-.77 1.12 1.12 0 0 0 0-1 1.14 1.14 0 0 0 -.73-.55z"/><path d="m186.52 196a1.54 1.54 0 0 0 -1.15.06l-2 .82 1 2.37 2-.84a1.53 1.53 0 0 0 .8-.78 1.16 1.16 0 0 0 -.71-1.63z"/><path d="m192.9 197.48 2.48-1.04-2.51-2.47z"/><path d="m169.44 193c-.61.33-61.86 32.35-89.78 15.92a41 41 0 0 1 -15.34-15.61l157.61-37.5a1.7 1.7 0 1 0 -.88-3.29l-160.45 33c-1-2.51-2-5.06-2.86-7.58-4.19-11.6-8.52-23.6-23.23-30.69-10.63-5.13-22-5.5-33.68-1.11a1.28 1.28 0 0 0 .89 2.39c11-4.14 21.7-3.79 31.68 1 13.78 6.64 17.74 17.62 21.94 29.26.87 2.41 1.75 4.83 2.72 7.24l-31.34 6.45a4.73 4.73 0 0 0 2.44 9.13l32.55-7.74a43.54 43.54 0 0 0 16.66 17.23c6.18 3.63 13.77 5.07 21.93 5.07 30.29 0 68.32-19.86 70.34-20.93a1.28 1.28 0 0 0 -1.2-2.26zm-134.3 4.39a1.84 1.84 0 0 1 -1-3.56l25-5c.4.89.81 1.79 1.24 2.67zm26.64-9.08 7.65-1.53a1.29 1.29 0 0 1 .66 2.49l-7.09 1.62c-.41-.89-.83-1.73-1.22-2.6z"/><path d="m279.77 139.69a1.57 1.57 0 0 0 -1.92-1.11l-29.86 7v3.64l30.67-7.61a1.57 1.57 0 0 0 1.11-1.92z"/></g></svg>