<svg xmlns="http://www.w3.org/2000/svg" xmlns:xlink="http://www.w3.org/1999/xlink" width="149.246" height="177.013" viewBox="0 0 149.246 177.013">
  <defs>
    <clipPath id="clip-path">
      <rect id="Rectangle_6" data-name="Rectangle 6" width="149.246" height="177.013" fill="#fff"/>
    </clipPath>
  </defs>
  <g id="logo-csf2020" clip-path="url(#clip-path)">
    <path id="Tracé_76" data-name="Tracé 76" d="M47.385,140.919a5.6,5.6,0,0,1,2.229-.884v-.089c-.178-1.5-1.337-1.326-2.14-1.061V138a4.217,4.217,0,0,1,3.12,0c.624.354.981.8,1.337,2.21.089.353.178.971.535,2.121.178.531.267.8.624.707v.884H52.2a1.907,1.907,0,0,1-1.426-.53,3.193,3.193,0,0,1-2.853.443A1.774,1.774,0,0,1,47.385,140.919Zm2.853,1.945.089-.088-.535-1.768H49.7C48.455,141.449,48.99,143.571,50.238,142.864Z" transform="translate(7 20.577)" fill="#414042"/>
    <path id="Tracé_77" data-name="Tracé 77" d="M57.8,137.932a1.09,1.09,0,1,0-1.337-1.061A1.284,1.284,0,0,0,57.8,137.932Z" transform="translate(8.438 20.295)" fill="#414042"/>
    <path id="Tracé_78" data-name="Tracé 78" d="M61.912,141.634s-.089,0,0,.177a1.65,1.65,0,0,0,1.783,1.238,1.73,1.73,0,0,0,.981-.354c.178-.089.178,0,.178.089v.707c0,.089,0,.177-.178.266a4.972,4.972,0,0,1-3.566-.089,3.169,3.169,0,0,1-1.694-2.917,3.085,3.085,0,0,1,6.152-.354c0,.089,0,.177-.089.177C65.478,140.661,61.912,141.634,61.912,141.634Zm1.248-1.149s.178,0,.178-.264a1.754,1.754,0,0,0-.357-1.149.63.63,0,0,0-1.159.177,4.1,4.1,0,0,0-.178,1.5c0,.177,0,.177.178.089C61.822,140.838,62.892,140.573,63.16,140.484Z" transform="translate(8.878 20.57)" fill="#414042"/>
    <path id="Tracé_79" data-name="Tracé 79" d="M47.528,143.572a1.763,1.763,0,0,0,.089.441H45.3a1.763,1.763,0,0,0,.089-.441v-3.536a.591.591,0,0,0-.624-.62.877.877,0,0,0-.8.885v3.359a1.774,1.774,0,0,0,.089.441H41.733a1.776,1.776,0,0,0,.089-.441v-3.624a.591.591,0,0,0-.624-.62.877.877,0,0,0-.8.885v3.359a1.774,1.774,0,0,0,.089.441H38.167a1.774,1.774,0,0,0,.089-.441v-4.42a3.807,3.807,0,0,0-.089-.443v-.089s.8-.353,2.229-.972v.972h.089l.089-.089c.713-1.148,3.12-1.325,3.477,0h.089a1.952,1.952,0,0,1,1.872-.884c1.872,0,1.6,1.592,1.6,2.564v2.916Z" transform="translate(5.698 20.576)" fill="#414042"/>
    <path id="Tracé_80" data-name="Tracé 80" d="M55.067,143.583a1.788,1.788,0,0,0,.089.443H52.749a1.788,1.788,0,0,0,.089-.443V139.34c0-.177-.089-.443-.089-.531,0,0,.981-.53,2.318-1.148v.971h.089v-.087a1.707,1.707,0,0,1,1.961-.884c.089,0,.089,0,.089.176a6.577,6.577,0,0,1-.357,1.415c0,.089,0,.089-.089.089-.8-.177-1.6.089-1.6,1.061v3.093Z" transform="translate(7.877 20.566)" fill="#414042"/>
    <path id="Tracé_81" data-name="Tracé 81" d="M59.035,143.578a1.788,1.788,0,0,0,.089.443h-2.5a1.79,1.79,0,0,0,.089-.443V138.8c0-.087,0-.087.089-.176h0s.8-.354,2.14-.972h.089Z" transform="translate(8.456 20.571)" fill="#414042"/>
    <path id="Tracé_82" data-name="Tracé 82" d="M71.376,142.964A1.522,1.522,0,0,1,69.5,142.7a3.132,3.132,0,0,1-.713-2.033c0-2.032,1.426-2.3,2.5-1.679v-1.06a3.908,3.908,0,0,0-1.962-.266,3.214,3.214,0,0,0-2.853,3.359c0,1.856,1.159,3.978,4.9,3.006Z" transform="translate(9.933 20.566)" fill="#414042"/>
    <path id="Tracé_83" data-name="Tracé 83" d="M73.623,143.6v-7.867s-1.694.8-2.5,1.149c.089.089.267.353.267,1.414v5.835a.888.888,0,0,1-.089.266h2.5C73.8,144.308,73.623,143.6,73.623,143.6Z" transform="translate(10.629 20.283)" fill="#414042"/>
    <path id="Tracé_84" data-name="Tracé 84" d="M74.647,140.764a4.036,4.036,0,0,1,1.6-.618,1.826,1.826,0,0,0,.446-.089h.089c-.089-1.591-1.426-1.5-2.14-1.238v-.972a4.059,4.059,0,0,1,3.21.089,2.66,2.66,0,0,1,1.248,1.592s.624,2.916.713,3.27c.089.266.267.443.446.443.089,0,.089,0,.089.087v.708c0,.089,0,.089-.089.089h-.892a2.083,2.083,0,0,1-1.516-.531,2.885,2.885,0,0,1-2.853.354A1.787,1.787,0,0,1,74.647,140.764Zm1.426.972a1.333,1.333,0,0,0,.267,1.149.953.953,0,0,0,1.07.089.087.087,0,0,0,.089-.089l-.535-1.945A1.173,1.173,0,0,0,76.073,141.736Z" transform="translate(11.032 20.556)" fill="#414042"/>
    <path id="Tracé_85" data-name="Tracé 85" d="M81.23,137.855a1.089,1.089,0,1,0-1.337-1.061C79.8,137.324,80.428,137.855,81.23,137.855Z" transform="translate(11.937 20.283)" fill="#414042"/>
    <path id="Tracé_86" data-name="Tracé 86" d="M82.388,143.612v.089a.9.9,0,0,0,.089.353H79.892c0-.087.089-.176.089-.353v-5.126a.087.087,0,0,1,.089-.089s.892-.443,2.318-1.061Z" transform="translate(11.939 20.536)" fill="#414042"/>
    <path id="Tracé_87" data-name="Tracé 87" d="M87.006,139.267a2.792,2.792,0,0,0-.981.089.961.961,0,0,0-.624.884v3.447a.91.91,0,0,0,.089.354h-2.5c0-.089.089-.177.089-.354v-4.6a3.777,3.777,0,0,0-.089-.441s.981-.443,2.318-1.061v.884H85.4l.089-.089a1.577,1.577,0,0,1,1.961-.8c.089,0,.089,0,.089.177a5.789,5.789,0,0,1-.357,1.325C87.1,139.267,87.1,139.267,87.006,139.267Z" transform="translate(12.402 20.55)" fill="#414042"/>
    <path id="Tracé_88" data-name="Tracé 88" d="M88.982,141.8c-.089,0-.089,0,0,.177.446,1.061.981,1.238,1.783,1.149a1.729,1.729,0,0,0,.981-.354c.178-.089.178,0,.178.089v.707c0,.089,0,.177-.178.266a4.966,4.966,0,0,1-3.566-.089,3.169,3.169,0,0,1-1.694-2.917,3.085,3.085,0,0,1,6.152-.353c0,.089,0,.176-.089.176A23.933,23.933,0,0,1,88.982,141.8Zm1.337-1.237s.178,0,.178-.266a1.754,1.754,0,0,0-.357-1.149.631.631,0,0,0-1.159.177,4.1,4.1,0,0,0-.178,1.5c0,.177,0,.177.178.089A7.721,7.721,0,0,0,90.319,140.562Z" transform="translate(12.923 20.581)" fill="#414042"/>
    <path id="Tracé_89" data-name="Tracé 89" d="M72.363,141.915h.267V142c.089,0,.267.089.357.089V142h.089c0-.089,0-.089.089-.177h.089c0-.089,0-.089.089-.177,0-.089,0-.089.089-.177v-.088l.089-.087v-.089h.089a.087.087,0,0,1,.089-.089.312.312,0,0,0,.178-.089v-.266c.357-.089.535-.53.8-.707v-.618a.087.087,0,0,1-.089-.089v-.62h-.267c0,.089-.089.177-.178.354h-.089v.089h-.089v.089h-.089v.089l-.089.089v.089l-.089.087v.088c-.089.089-.178.089-.178.177h-.089a.669.669,0,0,1-.178.354h-.089c-.089.089,0,.177-.089.177h-.089l-.178.176v.266c-.089,0-.089.088-.178.088,0,.266-.089.443,0,.618C72.363,141.826,72.363,141.826,72.363,141.915Zm11.947.972-.267-.531h-.178v0h-.089c-.089.089-.089.266-.178.354h-.089v.177h-.089c0,.089-.089.177-.089.266H83.24v.264a.324.324,0,0,1-.089.266h-.089c-.089.177-.178.177-.267.441h-.089v.177c-.089.089-.178.177-.267.177,0,.089-.089.089-.089.177h-.178v.089c0,.177-.089.177-.178.353H81.9c-.089.443-.267.177-.446.443,0,.088,0,.088-.089.177l-.089.089c0,.089-.089.176-.089.264H81.1c0,.088,0,.088-.089.177a.312.312,0,0,0-.178.089v.177c-.089,0-.178.089-.267.089v.177a.419.419,0,0,0-.446.441h-.089a.308.308,0,0,0-.089.177h-.089v.088l-.089.089v.176c-.089.177,0,0-.178.089v.089H79.5c0,.089,0,.089-.089.177-.089,0-.178.089-.267.089-.089.177-.089.089-.178.177s-.089.177-.178.266h-.089l-.089.087h-.089v.089h-.089v.089l-.089.089c0,.089,0,.089-.089.177s-.089.089-.178.354c-.089,0-.178.087-.267.087-.089.266-.089.089-.178.089a.087.087,0,0,1-.089.089v.088l-.089.089v.089c-.089.089-.178,0-.267,0l-.267.266a.329.329,0,0,0-.267.089v.087h-.089a.087.087,0,0,1-.089.089h-.178v.089h-.178v.088h-.089v.089H75.93v.089h-.089v.089h-.089v.089h-.178v.089h-.267v.089c-.089,0-.178-.354-.267-.354v-.089c-.089-.089,0-.089-.178-.177,0-.089,0-.089.089-.177a.545.545,0,0,0,.357-.087h.178l.178-.177v-.089c.089-.089.178-.089.178-.177v-.089a.9.9,0,0,0,.267-.088v-.089l.089-.089h.089v-.087h.089v-.089h.089c0-.089.089-.089.089-.177v-.089c.089,0,.089-.089.178-.089,0-.089,0-.089.089-.177h.089v-.089H77a.087.087,0,0,1,.089-.089h.089v-.176l.089-.089c0-.089.089-.177.089-.266a.087.087,0,0,1,.089-.089h.089a.087.087,0,0,1,.089-.089.887.887,0,0,0,.357-.441h.178V147.4c.089-.089.178-.177.267-.177v-.089c.089-.089.178-.177.267-.177v-.089l.089-.087V146.6c0-.089,0-.089.089-.177h.089c.089-.266.089-.089.178-.266,0-.088.089-.177.089-.264h.089c.089-.089.089-.177.178-.354h.089v-.354l.089-.089a2.381,2.381,0,0,0,0-.8.087.087,0,0,1-.089-.089c0-.176,0-.089-.089-.176v-.089h-.089s0-.266-.089-.266v-.089h-.178v-.089c-.089,0-.267-.177-.446-.089v.089H78.6v.089h-.089c-.178.089-.178.354-.446.266-.089.177-.089.177-.178.177v.087H77.8c0,.089-.089.177-.089.266a.087.087,0,0,1-.089.089h-.089v.266h-.089v.089c-.178.089-.089.177-.267.264-.089.089-.178.089-.267.177v.266h-.089v.177a.087.087,0,0,1-.089-.089l-.178.177v.176c-.089,0-.089.089-.178.089v.177c-.089,0-.178.089-.267.089v.266a.087.087,0,0,1-.089.089c-.089.089-.089,0-.178.089v.176c0,.088,0,.088-.089.177-.178,0-.178.177-.357.266,0,.177-.089.177-.178.353a.9.9,0,0,0-.267.089v.177l-.089.089v.089h-.089v.089h-.089v.266c0,.089-.089.176-.089.353H74.5c-.089.089-.089.177-.178.354h-.089v.353h-.089c-.089.089-.089.354-.178.531a.382.382,0,0,0-.357.353c-.178,0-.178.089-.357.177-.089.177-.089.088-.178.088,0,.089-.089.089-.089.177v.089c-.089,0-.178.089-.357.089a.273.273,0,0,1-.089.177h-.178c0,.087,0,.087-.089.176H72.1c0,.089,0,.089-.089.177h-.178c-.089.266,0,.089-.178.089l-.178.177h-.178a.087.087,0,0,1-.089.089c-.089,0-.178.088-.267.088a.087.087,0,0,1-.089.089H70.67v.089h-.178v.087H70.4v.089h-.089v.089h-.089v.089h-.267c-.089,0-.357.089-.446,0v-.089c-.089-.089-.089-.089-.178-.089v-.176c.089-.089.178-.089.267-.177v-.088c.089-.089.089,0,.178,0v-.266h.089v-.089c.089-.089.267-.177.357-.266V151.2a.087.087,0,0,1,.089-.089H70.4v-.089h.089c.089-.266.089-.089.178-.177,0-.089,0-.089.089-.177l.089-.089v-.089h.089V150.4h.089v-.177h.089c.089-.177.178-.266.267-.443h.089c0-.089.089-.177.089-.353.089,0,.089-.089.178-.089v-.177l.089-.089v-.089h.089a.087.087,0,0,1,.089-.089v-.177H72.1c0-.087,0-.087.089-.176h.089c0-.089,0-.089.089-.177h.089c0-.089.089-.177.089-.354.089,0,.089-.089.178-.089,0-.089.089-.177.089-.264.089,0,.089,0,.178-.089v-.531h.089v-.088l.089-.089v-.707h.089c0-.088,0-.088.089-.177h.089v-.264a3.807,3.807,0,0,0,.089-.443v-.264c0-.089,0-.089-.089-.177v-.089h-.089c-.089-.177-.089-.266-.178-.443a.759.759,0,0,0-.624,0v.089h-.089v.089h-.089c-.089.089-.089.177-.178.177H72.1v.089h-.089l-.267.266H71.65c0,.176-.089.176-.178.353h-.089c-.089.266-.178.266-.357.354,0,.089-.089.177-.089.353-.178,0-.357.265-.446.531H70.4c0,.089,0,.089-.089.089v.089h-.089a1.42,1.42,0,0,0-.267.53c-.267,0-.089.177-.267.266H69.6v.176l-.089.089v.089c-.089,0-.089.089-.178.089-.089.177-.089.354-.178.443h-.089a1.431,1.431,0,0,0-.267.53h-.178c0,.089-.089.177-.089.266h-.089a.517.517,0,0,0-.178.441h-.089a.659.659,0,0,0-.089.443l-.089.089a.67.67,0,0,0-.178.441h-.089a5.619,5.619,0,0,0-.178.8H67.46v.177a.678.678,0,0,0-.357.177v.089l-.089.089v.088h-.089v.089h-.267c0,.089-.089.089-.089.176-.089.089-.089,0-.178.177H66.3v.177c-.178,0-.267,0-.357.089a.087.087,0,0,1-.089.089h-.089a.087.087,0,0,1-.089.089h-.267c0,.088-.089.088-.089.177h-.267a.086.086,0,0,1-.089.087h-.089a.087.087,0,0,1-.089.089h-.713v-.176a.308.308,0,0,1,.089-.177,1.115,1.115,0,0,1,.089-.531v-.264a3.812,3.812,0,0,1,.089-.443h.089c0-.089,0-.089.089-.177h.089c0-.177.089-.441.089-.618.089,0,.089-.089.178-.089,0-.089,0-.089.089-.177.089-.177.089-.441.178-.618.089-.089.178-.089.178-.177,0-.177.089-.266.089-.441H65.5c.089-.089.089-.177.089-.354a.087.087,0,0,1,.089.089c.089-.177.267-.443.357-.618,0-.089,0-.089.089-.177l.267-.266a.529.529,0,0,0,.089-.354c.089-.087.178-.087.178-.176v-.266c.089-.089.178-.089.178-.177v-.177c.089,0,.089-.089.178-.089l.267-.53c.089,0,.089-.089.178-.089v-.089c0-.088.089-.177.089-.353a.312.312,0,0,0,.178-.089c.089-.177.089-.266.178-.443h.089c.089-.177.089-.264.178-.441h.089v-.354l.089-.089V144.3c0-.089.089-.177.089-.353.089-.089,0-.089.089-.089,0-.089.089-.177.089-.354h.089l.178-.353v-.266c0-.177.089-.443.089-.618v-.089a2.184,2.184,0,0,0,.089-.8c-.357-.176-.357-.441-.624-.618a.087.087,0,0,1-.089.089v.088c-.089.177.089.177-.178.266a.928.928,0,0,1-.178.441c-.089.089,0,.089-.089.089a.087.087,0,0,1-.089.089v.266h-.089v.353c-.089,0-.089.089-.178.089v.177l-.089.089v.088h-.089c-.089.177-.089.353-.178.53-.178.089-.089.089-.178.266v.266c-.089,0-.089.089-.178.089v.176l-.089.089v.089l-.089.089c-.089.177-.089.354-.178.443a.312.312,0,0,0-.178.089c0,.087-.089.264-.089.353l-.089.089c0,.089,0,.089-.089.177,0,.089-.089.266-.089.353-.089,0-.089.089-.178.089,0,.088-.089.177-.089.265-.089.266-.178.443-.267.707H65.32l-.267-.53h-.089v-.088c-.089,0-.178-.089-.267-.089v-.089h-.178v.089h-.089a.087.087,0,0,1-.089.089H64.25v.088h-.089c-.089.089-.178.177-.267.177v.353c-.089.089-.178,0-.178.266-.178,0-.357.266-.535.354h-.089c0,.087-.089.087-.089.176h-.089c-.089.089-.089.177-.178.177v.089c-.089.089-.178,0-.267.089,0,.089-.089.177-.089.266a.087.087,0,0,0-.089.089h-.267v.176a.464.464,0,0,1-.357.177c0,.089,0,.089-.089.177H61.4v.089a1.946,1.946,0,0,0-.267.441h-.089v.177c-.089.088-.178.088-.267.177h-.089c0,.089,0,.089-.089.177v.089h-.178c0,.089,0,.089-.089.177h-.178c0,.087,0,0-.089.087v.089h-.178c-.089.089-.089.177-.178.266-.089,0-.267.089-.357.089-.178,0-.089,0-.178.089,0,.089,0,.089-.089.177-.178,0-.267.089-.446.176v.177h-.267c-.089.089-.267.354-.357.443a.539.539,0,0,1-.357.088c0,.089,0,.089-.089.177-.178,0-.267,0-.357.176a.087.087,0,0,1-.089.089h-.089l-.089.089H56.85v.089h-.089v.089h-.089a2.371,2.371,0,0,0-.446.53.329.329,0,0,0-.267.089v.089H55.87v.177a.9.9,0,0,1-.267.089v.089h-.178v.089h-.089v.089h-.089a.087.087,0,0,1-.089.087h-.089a.087.087,0,0,1-.089.089h-.267c-.089,0-.178.089-.267.089.089-.177.089-.264.178-.441v-.443c.089-.089.178-.177.267-.177v-.441c.089-.089.178-.089.178-.177s0-.089.089-.177h.089a3.828,3.828,0,0,1,.089-.441h.089c.089-.089.089-.177.178-.354h.089a.324.324,0,0,1,.089-.266l.089-.087v-.266l.089-.089v-.53h.089v-.089c0-.089,0-.089.089-.177,0-.089,0-.089.089-.177l.089-.089v-.353H56.4v-.089h.089v-.089l.089-.089V148.9l.089-.089v-.353h.089c.089-.089.089-.443.089-.531v-.177c-.089-.176-.267-.353-.357-.53H56.4v-.089c-.089-.089-.178-.266-.357-.177v.088h-.089v.089h-.178l-.089.089H55.6l-.089.089h-.089c-.178.177-.357.441-.535.618s-.357.177-.446.443h-.089c0,.089-.089.177-.089.266a.332.332,0,0,0-.267.087c-.089.177-.089.266-.178.443-.178,0-.267,0-.267.177-.267,0-.267,0-.267.264-.089,0-.178.089-.267.089v.089c-.089,0-.089.088-.178.088v.089l-.267.266v.089h-.089c0,.089-.089.089-.089.264-.267,0-.178.089-.267.266h-.089v.089h-.089c-.089.089-.089.177-.178.177-.178.177-.267.089-.357.441-.357,0-.267.177-.446.354a.677.677,0,0,1-.357.177c0,.089-.089.177-.089.264h-.178a.324.324,0,0,1-.089.266.464.464,0,0,0-.357.177v.089c-.089,0-.089.089-.178.089v.088h-.089v.089H49.54v.087c-.178.089-.267,0-.357.266-.089,0-.178.088-.267.088,0,.089,0,.089-.089.177-.178,0-.535.089-.624.089l-.267.264v.8a.087.087,0,0,1,.089.087v.089c0,.089,0,.089.089.177.178.089.267.177.446.089v-.089h.178v-.089h.089a.087.087,0,0,1,.089-.089h.178V155h.089v-.087l.357-.354v-.177h.178c.089-.177.089-.177.178-.177v-.089h.089v-.176c.267,0,.535-.354.624-.62h.178c.089-.176.089-.176.267-.176.089-.266.267-.266.446-.443.089-.089.089-.177.178-.266h.089a.087.087,0,0,1,.089-.089h.089v-.087h.089c0-.089.089-.089.089-.177s0-.088.089-.177v-.089l.089-.089h.089c0-.089,0-.089.089-.177s.178-.089.178-.177a.086.086,0,0,1,.089-.087h.089a.087.087,0,0,1,.089-.089c.089-.089.178-.089.178-.177s0-.089.089-.177.267-.177.357-.266v-.089h.089a.3.3,0,0,0,.089-.176h.089c.089-.089.089-.177.178-.177l.357-.354v-.089h.089a.308.308,0,0,0,.089-.176h.089l.267-.266h.089v-.089c.089-.089.178-.089.178-.177V148.9c.089-.089.178-.089.267-.264H55.6a1.231,1.231,0,0,1-.267.353h-.089v.707c-.089.089-.178.177-.267.177l-.089.354H54.8c-.089.089-.089.177-.089.353h-.089v.089l-.267.266-.089.089v.089c-.089.177,0,.353,0,.441h-.089a.944.944,0,0,0-.178.531c-.178,0-.089,0-.089.089v.089s-.178.176-.267.176c0,.266-.089.443-.089.708-.178,0-.178.176-.267.441v.354H53.2v.089l-.089.087v.266c0,.089-.089.177-.089.266V155l.178.177v.177h.089c0,.177.089.266.089.354.178,0,.446.264.713.177v-.089h.089a.087.087,0,0,1,.089-.088h.089v-.089c.089-.089.089-.089.178-.089v-.177c.178,0,.267-.089.357-.089,0-.089,0-.089.089-.177h.089c.089-.176.178-.176.267-.353h.089v-.177c.178,0,.178-.089.357-.177a.087.087,0,0,1,.089-.089.329.329,0,0,0,.267-.089v-.089l.089-.087h.089c0-.089.089-.089.089-.177h.089v-.089c.089,0,.089-.089.178-.089v-.089a.308.308,0,0,0,.089-.177h.089a.308.308,0,0,0,.089-.177h.089a.086.086,0,0,1,.089-.087h.089v-.089H57.3a.087.087,0,0,1,.089-.088h.089a.308.308,0,0,0,.089-.177h.089c.089-.089.089-.177.178-.266h.089a.308.308,0,0,0,.089-.177H58.1c.089-.264.178-.176.357-.353.089-.177.178-.266.267-.443H58.9l.267-.264h.178l.267-.266h.178v.089h-.178v.264h-.178c0,.089-.089.177-.089.266-.267,0-.089.089-.267.266-.089.089-.089,0-.178.089h-.089c-.089.177-.089.353-.178.53h-.089a1.386,1.386,0,0,1-.446.707c0,.266-.089.62-.089.8.089.087.089.176.178.264v.089c0,.177.178.177.178.266.178.089.178,0,.446,0,.089-.266.267,0,.446-.089h.178c.178-.177.267-.177.446-.354h.178v-.089h.089v-.087a.087.087,0,0,1,.089-.089c.089-.089,0,.089.089-.089h.089v-.089c.089,0,.089-.089.178-.089v-.089c.089,0,.089-.088.178-.088v-.089h.089a.087.087,0,0,1,.089-.089h.089l.178-.176h.089v-.089H61.4v-.088h.178c.089-.089.178-.266.267-.354h.089l.267-.266c0-.087.089-.176.089-.264l.089-.088V151.9h.089l.089-.089c.178-.089.178,0,.267-.266h.089l.267-.264V151.2h.089c0,.176-.089.441-.089.618a.659.659,0,0,1-.089.443l.089.087v.443c0,.089.089.089.178.177v.177c.089.087.089.176.178.264h.089c.089.089.089.177.178.266s.178.089.357.177v.089a2.993,2.993,0,0,0,.892,0,.087.087,0,0,1,.089-.089h.089a.087.087,0,0,1,.089-.089c.089,0,.267-.089.357-.089.089-.089.089-.177.178-.266h.178v-.089h.089a.087.087,0,0,1,.089-.089c.089,0,.178-.087.267-.087a.087.087,0,0,1,.089-.089h.089c.089-.088.178-.266.357-.354H67.1l.267-.266h.089v-.089c.089-.087.089,0,.089-.087.267.087.267.353.446.53v.089c.178,0,.178.089.267.177v.089a2.516,2.516,0,0,1,.8.087.086.086,0,0,1,.089-.087h.267l.178-.177h.089a.087.087,0,0,1,.089-.089h.089v-.089c.089,0,.267-.089.357-.089l.267-.266h.178l.267-.264h.089l.089-.089H71.2v-.088h.089V151.9h.089c.089-.089.089-.177.178-.177h.178c.089-.089.178-.266.357-.354h.178l.446-.441H72.9l.267-.266h.267c.089.088.089.177.178.266v.089a.087.087,0,0,1,.089.089v.089h.089a1.217,1.217,0,0,1,.267.353c.178,0,.357.177.446.089,0,.177.267.177.267.177.089,0,.089.089.267.089v-.089h.178v-.089h.089v-.089h.357a.087.087,0,0,1,.089-.089h.089v-.089H76.2l.178-.176h.089a.087.087,0,0,1,.089-.089h.089v-.089h.089v-.089h.089a.087.087,0,0,1,.089-.089H77c.089-.089.089-.177.178-.177.178,0,.267-.088.446-.088,0-.089.089-.089.089-.177a1.885,1.885,0,0,1,.535-.353v-.177h.089v-.089h.089a.087.087,0,0,1,.089-.088H78.6l.267-.177v-.087c.089,0,.089-.089.178-.089v-.089c.089-.089.357-.089.357-.177.089-.089,0-.177.089-.266h.089c.089-.089.089-.177.178-.177h.089c.089-.087,0-.087.089-.176h.178c0-.089.089-.266.089-.354.089,0,.089,0,.178-.089.178,0,.178-.089.178-.266h.089v-.176c.089,0,.178-.089.267-.089a.087.087,0,0,1,.089-.089H81.1v-.177h.089v-.089c.178-.177.357-.177.446-.53h.089l.178-.177h.089v-.266a.678.678,0,0,1,.357-.177,2.184,2.184,0,0,1-.089.708v.441c-.089.266-.089.618-.178.884l-.089.177v.618c0,.354,0,.443-.178.62h-.267a.931.931,0,0,0-.178-.443h-.089a.308.308,0,0,0-.089-.177H81.1v-.089c-.089-.089-.089,0-.178-.089h-.267v.089l-.089.089v.266a2.561,2.561,0,0,1-.178.8v.177c.089.177.089.266.267.353a.323.323,0,0,0,.089.266c.089.089.178,0,.267.089v.089h.178v.089h.089v.089h.178v.089c.089,0,.089.089.178.089v.087h.089v.089h.089v.089H81.9v.089c.089,0,.089,0,.178.089v.089h.089v.089h.178v.089c.267,0,.357-.177.535-.266a1.109,1.109,0,0,1,.089-.53h-.089c0-.354.089-.708.089-.972v-.266c.089-.354.089-.707.178-1.061a5.78,5.78,0,0,1,.089-1.237v-.708h.089a.792.792,0,0,1,.089-.441h.089c.089-.531.178-.972.267-1.5v-.266c0-.089.089-.177.089-.266V144.3a3.784,3.784,0,0,1,.089-.441c.357-.62.446-.8.357-.972Zm-8.916,4.331h0c.089-.089.089-.089.089-.177.089,0,.089-.088.178-.088,0-.089,0-.089.089-.176h.089c.089-.089.089-.177.178-.354h.089c0-.089,0-.089.089-.177v-.089h.089v-.177c.089-.176.089-.264.267-.264,0-.177,0-.089.089-.177v-.089h.089c0-.089.089-.089.089-.177h.089a.087.087,0,0,1,.089-.089c0-.089.089-.177.089-.264h.089a.087.087,0,0,1,.089-.089h.089v-.089c.089-.177-.089-.089.178-.177.089-.266.089-.177.267-.266.178-.177.446-.618.713-.618v-.089h.178a1.221,1.221,0,0,1-.267.354h-.089c0,.089-.089.176-.089.264a.087.087,0,0,1-.089.089H78.07c-.089.089,0,.089-.089.177l-.089.089c0,.088-.089.177-.089.354-.178,0-.178.176-.267.176v.177c-.267.089-.089.089-.178.177s-.178.177-.267.177c0,.089-.089.177-.089.266a.086.086,0,0,1-.089.087h-.178c0,.089,0,.089-.089.177h-.089c-.089.089-.089.177-.178.266a.087.087,0,0,1-.089-.089v.177c-.178,0-.178.177-.267.266v.087h-.178a1.221,1.221,0,0,0-.267.354c-.089,0,0,0-.089-.089C75.306,147.4,75.395,147.307,75.395,147.218Zm-5.171.53c.178,0,.089-.087.178-.176v-.266c.178,0,.089-.089.178-.177,0-.089,0-.089.089-.177a.191.191,0,0,0,.178-.176h.089c0-.089.089-.177.089-.266.089-.088.178-.088.178-.354h.089c.089-.177.178-.264.267-.441h.089c0-.177.089-.177.089-.354h.178c0-.089,0-.089.089-.177H72.1c0-.089.089-.176.089-.353.089,0,.178-.089.267-.089v-.177c.178,0,.178-.089.267-.177H72.9c0,.089-.089.177-.089.266-.089,0-.089,0-.178.089v.177h-.089v.176a.087.087,0,0,1-.089.089h-.089a.945.945,0,0,0-.178.531c-.089,0-.267.089-.267.177v.087h-.089v.089c0,.088-.089.088-.178.088,0,.089-.089.177-.089.266a.236.236,0,0,0-.267.266H71.2c-.089.264-.089.089-.267.264v.266h-.089v.177c-.089.088-.178.088-.267.177v.264c0,.089-.089.177-.089.266-.089,0-.178.089-.267.177C70.046,148.191,70.135,148.1,70.224,147.748Zm-5.8.089v.177H64.34c-.089.177-.089.266-.178.443-.089.089-.178.177-.267.177v.264h-.178c0,.089-.089.177-.089.266h-.178c-.089.089,0,.089-.089.089-.089.177-.178.266-.178.441a.9.9,0,0,0-.267.089c0,.088-.089.177-.089.266h-.178c-.089,0-.089.177-.089.266a.087.087,0,0,1-.089.089c-.089.087-.089,0-.089.087h-.089v.177H62.2c-.089.177-.178.266-.267.443h-.178c0,.089-.089.177-.089.264h-.178c0,.089-.089.177-.089.266-.178,0-.178.089-.267.177v.089h-.089v.089c-.178,0-.178,0-.178.177h-.089c0,.089,0,.089-.089.176H60.6a.673.673,0,0,1,.178-.441h.089v-.266a.312.312,0,0,0,.178-.089v-.177a.313.313,0,0,0,.178-.087v-.266c.178-.177.357-.266.446-.443V150.4h.089c.178,0,.089,0,.089-.089v-.089c.089-.089.178-.089.178-.177v-.177c.178,0,.267-.177.357-.266v-.087h.089c.089-.089.178-.266.267-.354h.089c0-.089.089-.177.089-.266H63v-.089c.089-.089.178-.176.267-.176v-.089h.089c.089-.089.178-.266.267-.354h.089c.089-.266.089-.177.267-.266a.087.087,0,0,1,.089-.089h.089a.087.087,0,0,1,.089-.089h.089v-.087l.089-.089V147.4h.089v-.089c0-.089.089-.089.089-.177H64.7v-.089h.089v-.177a.086.086,0,0,1,.089-.087h.089c.089-.089.089-.177.178-.266.178-.088.178,0,.357-.177l-.267.53h-.089v.177h-.089c0,.089-.089.177-.089.266-.089,0-.089,0-.178.089-.089,0-.089,0-.089.088h-.089c0,.089-.089.177-.089.264S64.518,147.837,64.429,147.837Zm-5.8-4.949h.178l.089.266a.639.639,0,0,0,.535.264c.089-.089.089,0,.178-.089l.178-.176v-.089h.089c0-.089.089-.177.089-.266h.089c0-.089,0-.089.089-.177.089,0,.089-.089.178-.089V142a.087.087,0,0,1-.089-.089v-.266a1.232,1.232,0,0,1-.267-.353h-.089v-.089h-.089v-.089H59.7v-.089h-.089v-.089a.087.087,0,0,1-.089-.088l-.357.354H58.99v.089c0,.088-.089.176-.089.264-.089,0-.089.089-.178.089v.177h-.089c-.089.089-.089.354-.089.53h.089Z" transform="translate(7.163 20.731)" fill="#dd503c" fill-rule="evenodd"/>
    <path id="Tracé_90" data-name="Tracé 90" d="M74.623,147.972C33.433,147.972,0,114.736,0,73.986,0,33.148,33.433,0,74.623,0s74.623,33.148,74.623,73.986C149.246,114.736,115.724,147.972,74.623,147.972Zm0-146.028C34.592,1.945,1.961,34.3,1.961,73.986S34.5,146.028,74.623,146.028c40.031,0,72.662-32.264,72.662-72.041S114.654,1.945,74.623,1.945Z" fill="#5b665e"/>
    <path id="Tracé_91" data-name="Tracé 91" d="M73.765,140.581c-37.534,0-68.026-30.231-68.026-67.445S36.231,5.691,73.765,5.691s68.025,30.231,68.025,67.445C141.791,110.262,111.3,140.581,73.765,140.581Zm0-133.917C36.855,6.663,6.72,36.541,6.72,73.136S36.766,139.52,73.765,139.52c36.91,0,67.045-29.789,67.045-66.384S110.676,6.663,73.765,6.663Z" transform="translate(0.858 0.85)" fill="#5b665e"/>
    <path id="Tracé_92" data-name="Tracé 92" d="M30.234,48.528a4.132,4.132,0,0,0-1.694-1.149.767.767,0,0,0-.624,0,.884.884,0,0,0-.357.442l-.089.354a.721.721,0,0,0,.357.884,3.172,3.172,0,0,1,1.6,1.68,3.787,3.787,0,0,1-.089,2.21,3,3,0,0,1-1.6,1.945,4.142,4.142,0,0,1-2.942,0c-.357-.088-.8-.265-1.516-.442a6.069,6.069,0,0,1-1.426-.53,4.746,4.746,0,0,1-2.407-1.768,2.952,2.952,0,0,1-.089-2.475,3.289,3.289,0,0,1,1.248-1.856,3.364,3.364,0,0,1,2.229-.442c.624.088.8-.265.8-.442l.089-.354a.559.559,0,0,0,0-.53.626.626,0,0,0-.446-.354,5.643,5.643,0,0,0-2.14-.089,5.069,5.069,0,0,0-2.051,1.061,5.823,5.823,0,0,0-1.516,2.387,4.4,4.4,0,0,0,.267,3.978,6.506,6.506,0,0,0,3.3,2.475,16.514,16.514,0,0,1,1.6.53,16.478,16.478,0,0,0,1.6.53,9.02,9.02,0,0,0,2.14.354,4.835,4.835,0,0,0,1.962-.354,4.693,4.693,0,0,0,2.585-3.005,5.293,5.293,0,0,0,.267-2.829A3.989,3.989,0,0,0,30.234,48.528Z" transform="translate(2.575 6.807)" fill="#5b665e"/>
    <path id="Tracé_93" data-name="Tracé 93" d="M38.926,38.156l-5.349-.8a3.457,3.457,0,0,0,.089-2.122,3.6,3.6,0,0,0-1.6-2.121,3.682,3.682,0,0,0-3.12-.884,4.566,4.566,0,0,0-2.764,1.856l-2.5,3.271a1.248,1.248,0,0,0-.178.53c0,.177.178.354.267.442L33.4,45.669a1.515,1.515,0,0,0,.446.177h.089a.491.491,0,0,0,.446-.265l.178-.265a1.248,1.248,0,0,0,.178-.53.761.761,0,0,0-.267-.53l-3.745-2.917L32.6,38.863l5.528.8h.535c.178,0,.357-.177.535-.354l.089-.177a.581.581,0,0,0,.089-.53.486.486,0,0,0-.267-.442C39.193,38.244,39.1,38.244,38.926,38.156Zm-7.935-3.624a1.975,1.975,0,0,1,.981,1.591,3.256,3.256,0,0,1-.8,1.945l-1.783,2.387-3.655-2.829,1.783-2.387A2.983,2.983,0,0,1,29.208,34,1.819,1.819,0,0,1,30.991,34.532Z" transform="translate(3.512 4.804)" fill="#5b665e"/>
    <path id="Tracé_94" data-name="Tracé 94" d="M36.626,23.688a.54.54,0,0,0,.357-.088l.178-.177q.267-.133.267-.265c.089-.088.089-.177.178-.354l.713-2.475a.658.658,0,0,0-.089-.442.889.889,0,0,0-.446-.354,1.58,1.58,0,0,0-.535.088l-.713.442c-.178.088-.267.265-.357.354s-.089.265-.089.53l-.178,1.945a.953.953,0,0,0,.089.442C36.269,23.6,36.447,23.688,36.626,23.688Z" transform="translate(5.367 2.919)" fill="#5b665e"/>
    <path id="Tracé_95" data-name="Tracé 95" d="M48.533,31.533a.889.889,0,0,0-.446-.354,1.336,1.336,0,0,0-.535.088L42.56,34.538,40.153,31,44.7,28a.884.884,0,0,0,.357-.442,1.113,1.113,0,0,0-.089-.53l-.267-.177a.889.889,0,0,0-.446-.354,1.335,1.335,0,0,0-.535.088l-4.547,3.005-2.229-3.359,4.9-3.182a.884.884,0,0,0,.357-.442,1.112,1.112,0,0,0-.089-.53l-.178-.265a.889.889,0,0,0-.446-.354,1.335,1.335,0,0,0-.535.088l-5.706,3.8a.486.486,0,0,0-.267.442,1.112,1.112,0,0,0,.089.53l6.776,10.077a.889.889,0,0,0,.446.354h.178c.178,0,.267,0,.357-.088l5.884-3.889a.884.884,0,0,0,.357-.442,1.114,1.114,0,0,0-.089-.53Z" transform="translate(5.227 3.206)" fill="#5b665e"/>
    <path id="Tracé_96" data-name="Tracé 96" d="M60.984,27.4l-7.4-10.431a.85.85,0,0,0-.981-.354l-.624.177a.776.776,0,0,0-.624.8L50.107,30.316v.265a.884.884,0,0,0,.357.442.54.54,0,0,0,.357.088H51l.357-.088a1.951,1.951,0,0,0,.446-.265.528.528,0,0,0,.089-.354l.267-2.917,5.617-1.5,1.694,2.387.267.265c.089.088.267.088.535.088l.357-.088a.889.889,0,0,0,.446-.354,1.113,1.113,0,0,0,.089-.53ZM56.7,24.483l-4.369,1.149.624-6.364Z" transform="translate(7.488 2.478)" fill="#5b665e"/>
    <path id="Tracé_97" data-name="Tracé 97" d="M71.111,15.261,63,15a1.274,1.274,0,0,0-.535.177,1.248,1.248,0,0,0-.178.53v.265a1.248,1.248,0,0,0,.178.53c.089.177.267.177.535.265l3.21.088L65.851,27.9a.743.743,0,0,0,.178.53c.089.177.267.177.535.265h.357a1.274,1.274,0,0,0,.535-.177.533.533,0,0,0,.267-.53l.357-11.049,3.12.089a1.274,1.274,0,0,0,.535-.177.533.533,0,0,0,.267-.53v-.265a.943.943,0,0,0-.178-.53A1.192,1.192,0,0,0,71.111,15.261Z" transform="translate(9.307 2.241)" fill="#5b665e"/>
    <path id="Tracé_98" data-name="Tracé 98" d="M79.181,17.012l-.357-.088a.594.594,0,0,0-.535.088.959.959,0,0,0-.357.442l-3.388,11.58a1,1,0,0,0,0,.53.888.888,0,0,0,.446.354l.357.088h.178a.539.539,0,0,0,.357-.088.959.959,0,0,0,.357-.442L79.627,17.9a1.006,1.006,0,0,0,0-.53A.889.889,0,0,0,79.181,17.012Z" transform="translate(11.134 2.523)" fill="#5b665e"/>
    <path id="Tracé_99" data-name="Tracé 99" d="M94.188,25.26a4.565,4.565,0,0,0-2.318-3.005,5.046,5.046,0,0,0-3.834-.707,5.963,5.963,0,0,0-3.3,2.74c-.178.354-.446.707-.8,1.326a12.935,12.935,0,0,0-.8,1.326c-1.783,3.094-1.337,5.48,1.426,7.16a5.074,5.074,0,0,0,2.764.884q2.407,0,4.279-2.917c.446-.619.713-1.061.892-1.326s.446-.707.8-1.326A5.824,5.824,0,0,0,94.188,25.26Zm-2.5,3.271c-.357.619-.624,1.061-.713,1.237a11.329,11.329,0,0,1-.8,1.238,4.233,4.233,0,0,1-2.318,1.945,2.694,2.694,0,0,1-2.407-.442,3.207,3.207,0,0,1-1.516-1.945,4.381,4.381,0,0,1,.713-2.917c.178-.354.446-.707.713-1.237.357-.53.535-.884.8-1.238a4.233,4.233,0,0,1,2.318-1.945,2.234,2.234,0,0,1,.713-.088,3.416,3.416,0,0,1,1.694.53A3.207,3.207,0,0,1,92.4,25.614,4.182,4.182,0,0,1,91.691,28.531Z" transform="translate(12.264 3.203)" fill="#5b665e"/>
    <path id="Tracé_100" data-name="Tracé 100" d="M107.718,37.513a.743.743,0,0,0-.178-.53l-.178-.265a.542.542,0,0,0-.536-.265,1.273,1.273,0,0,0-.534.177l-7.132,5.657L102.9,31.768a.662.662,0,0,0-.089-.707l-.268-.265a.539.539,0,0,0-.534-.265,1.283,1.283,0,0,0-.536.177l-9.45,7.514a.486.486,0,0,0-.267.442.646.646,0,0,0,.178.53l.178.265a.491.491,0,0,0,.446.265.659.659,0,0,0,.535-.177l7.132-5.657L96.573,44.32a.662.662,0,0,0,.089.707l.267.265a.54.54,0,0,0,.535.265.684.684,0,0,0,.446-.177l9.451-7.514C107.628,37.779,107.718,37.6,107.718,37.513Z" transform="translate(13.712 4.562)" fill="#5b665e"/>
    <path id="Tracé_101" data-name="Tracé 101" d="M113.338,48.16a5.248,5.248,0,0,0-1.248-2.033,2.992,2.992,0,0,0-1.783-.972,3.707,3.707,0,0,0-1.962.088,3.533,3.533,0,0,0-1.6.972,3.257,3.257,0,0,0-.713,1.591,16.305,16.305,0,0,0-.179,2.387,17.13,17.13,0,0,1-.089,2.387,2.541,2.541,0,0,1-.356,1.237,1.947,1.947,0,0,1-.8.619,1.9,1.9,0,0,1-1.694-.177,3.766,3.766,0,0,1-1.338-1.945,3.52,3.52,0,0,1-.178-2.3,2.015,2.015,0,0,1,.98-1.238.722.722,0,0,0,.357-.884l-.09-.354c-.089-.177-.178-.354-.356-.354a.574.574,0,0,0-.536,0,3.846,3.846,0,0,0-1.515,1.149,4.6,4.6,0,0,0-.713,2.033,6.6,6.6,0,0,0,.357,2.563,5.279,5.279,0,0,0,2.14,2.917,3.237,3.237,0,0,0,1.783.53,3.607,3.607,0,0,0,1.338-.265,2.9,2.9,0,0,0,1.516-1.061,4.176,4.176,0,0,0,.713-1.679,10.392,10.392,0,0,0,.09-2.475,14.416,14.416,0,0,1,.089-2.21,3.522,3.522,0,0,1,.356-1.149,1.944,1.944,0,0,1,.8-.619,1.516,1.516,0,0,1,1.515.177,3.525,3.525,0,0,1,1.159,1.679,2.955,2.955,0,0,1,.09,1.945,1.613,1.613,0,0,1-.98,1.149.73.73,0,0,0-.446.442v.442l.09.354a.951.951,0,0,0,.356.442.572.572,0,0,0,.534,0,3.176,3.176,0,0,0,1.426-1.061,5.872,5.872,0,0,0,.8-1.856A2.461,2.461,0,0,0,113.338,48.16Z" transform="translate(14.868 6.733)" fill="#5b665e"/>
    <path id="Tracé_102" data-name="Tracé 102" d="M19.188,75.41a3.373,3.373,0,0,0,1.6-.619,3.233,3.233,0,0,0,.892-1.414,18.081,18.081,0,0,0,.624-2.21c.178-.884.357-1.591.446-2.033a4.78,4.78,0,0,1,.535-.972,1.368,1.368,0,0,1,.892-.354,1.479,1.479,0,0,1,1.337.442,2.966,2.966,0,0,1,.713,1.768,2.77,2.77,0,0,1-.267,1.768,1.731,1.731,0,0,1-1.07.884c-.267.088-.446.177-.446.354a.792.792,0,0,0-.089.442v.354a.551.551,0,0,0,.267.442.81.81,0,0,0,.446.088,3.915,3.915,0,0,0,1.516-.707,3.594,3.594,0,0,0,1.07-1.591,4.756,4.756,0,0,0,.178-2.3,4.6,4.6,0,0,0-.713-2.033A3.808,3.808,0,0,0,25.7,66.482a3.053,3.053,0,0,0-1.783-.265,2.921,2.921,0,0,0-1.6.619,3.062,3.062,0,0,0-.981,1.326,16.118,16.118,0,0,0-.624,2.121,16.239,16.239,0,0,1-.535,2.21,2.968,2.968,0,0,1-.535,1.061,1.728,1.728,0,0,1-.8.442,1.84,1.84,0,0,1-1.516-.442,2.892,2.892,0,0,1-.8-2.033,3.861,3.861,0,0,1,.267-2.122,1.806,1.806,0,0,1,1.159-.972.741.741,0,0,0,.535-.707v-.354a.486.486,0,0,0-.267-.442.594.594,0,0,0-.535-.088,2.774,2.774,0,0,0-1.6.8A4.557,4.557,0,0,0,15,69.311a6.858,6.858,0,0,0-.178,2.387A4.751,4.751,0,0,0,16.157,74.7a2.971,2.971,0,0,0,2.229.884A3.334,3.334,0,0,1,19.188,75.41Z" transform="translate(2.209 9.89)" fill="#5b665e"/>
    <path id="Tracé_103" data-name="Tracé 103" d="M30.946,80.261l-.267-.53a.679.679,0,0,0-.8-.442l-11.947.8-.267.088a.693.693,0,0,0-.357.354.559.559,0,0,0,0,.53l.089.265a.693.693,0,0,0,.357.354.54.54,0,0,0,.357.088l2.675-.177,2.229,4.862L21.05,88.305c-.089.089-.178.177-.178.265a.559.559,0,0,0,0,.53l.178.265a.694.694,0,0,0,.357.354h.178a.679.679,0,0,0,.357-.088l.178-.177,8.47-8.309A.59.59,0,0,0,30.946,80.261Zm-2.318.8-4.19,4.066-1.694-3.713Z" transform="translate(2.576 11.845)" fill="#5b665e"/>
    <path id="Tracé_104" data-name="Tracé 104" d="M38.8,93.679c.178-.088.178-.265.267-.442,0-.177,0-.354-.178-.442l-.178-.265c-.089-.177-.267-.177-.446-.265h-.357l-9.45,3.624,5.26-8.663c.089-.088.089-.177.089-.354a.672.672,0,0,0-.178-.442l-.178-.265c-.089-.177-.267-.177-.446-.265a.659.659,0,0,0-.535.177L26.233,96.242a.933.933,0,0,0,.089,1.061l.267.354a1.135,1.135,0,0,0,.624.354.539.539,0,0,0,.357-.088l10.966-4.243Z" transform="translate(3.902 12.836)" fill="#5b665e"/>
    <path id="Tracé_105" data-name="Tracé 105" d="M44.57,96.475a4.286,4.286,0,0,0-3.477-.8,5.275,5.275,0,0,0-3.12,2.387c-.178.265-.446.707-.8,1.237a13.371,13.371,0,0,0-.8,1.237c-1.783,2.829-1.427,5.127,1.07,6.718a5.035,5.035,0,0,0,2.675.884c1.426,0,2.764-.884,4.012-2.563.357-.531.713-.972.8-1.149.178-.266.446-.618.8-1.238a5.428,5.428,0,0,0,.981-3.8A4.417,4.417,0,0,0,44.57,96.475ZM43.589,97.8a2.843,2.843,0,0,1,1.337,1.856,4,4,0,0,1-.713,2.652c-.357.62-.624.972-.713,1.149a7.674,7.674,0,0,1-.8,1.061,4.229,4.229,0,0,1-2.14,1.768,2.942,2.942,0,0,1-2.229-.443,3.066,3.066,0,0,1-1.337-1.856,4,4,0,0,1,.713-2.652c.178-.264.446-.707.713-1.149a12.906,12.906,0,0,1,.8-1.149,4.056,4.056,0,0,1,2.229-1.768,1.529,1.529,0,0,1,.624-.088A4.227,4.227,0,0,1,43.589,97.8Z" transform="translate(5.268 14.283)" fill="#5b665e"/>
    <path id="Tracé_106" data-name="Tracé 106" d="M52.095,100.6l-.267-.089a1.029,1.029,0,0,0-.535,0,.96.96,0,0,0-.357.443l-3.923,10.43a.56.56,0,0,0,0,.531.7.7,0,0,0,.357.353l.267.089c.089,0,.178.089.267.089a.329.329,0,0,0,.267-.089.961.961,0,0,0,.357-.441l3.923-10.52a.558.558,0,0,0,0-.53A.4.4,0,0,0,52.095,100.6Z" transform="translate(7.015 15.015)" fill="#5b665e"/>
    <path id="Tracé_107" data-name="Tracé 107" d="M61.122,102.646l-3.834-.443a.658.658,0,0,0-.535.177,1.947,1.947,0,0,0-.267.441l-1.337,11.138a3.107,3.107,0,0,0,.089.531.492.492,0,0,0,.446.264h.267a1.138,1.138,0,0,0,.535-.089.485.485,0,0,0,.267-.441l.535-4.331,2.853.353,1.961,4.685a1.927,1.927,0,0,0,.267.443.639.639,0,0,0,.535.264h.267c.178,0,.267-.089.446-.176s.178-.266.267-.443a.665.665,0,0,0-.089-.354l-1.872-4.6a3.44,3.44,0,0,0,1.694-.884,3.657,3.657,0,0,0,.981-2.3,3.225,3.225,0,0,0-.8-2.917A3.677,3.677,0,0,0,61.122,102.646Zm1.961,4.066a1.935,1.935,0,0,1-.8,1.5,2.669,2.669,0,0,1-1.961.264l-2.764-.353.535-4.155,2.764.354a2.638,2.638,0,0,1,1.872.8A1.806,1.806,0,0,1,63.083,106.711Z" transform="translate(8.241 15.273)" fill="#5b665e"/>
    <path id="Tracé_108" data-name="Tracé 108" d="M74.146,107.84a1.271,1.271,0,0,0-.535-.176l-4.814.618a.629.629,0,0,0-.535.8v.266a.484.484,0,0,0,.267.441.525.525,0,0,0,.446.177h.089l4.814-.618a.491.491,0,0,0,.446-.266c.089-.177.178-.354.089-.53v-.266A.486.486,0,0,0,74.146,107.84Z" transform="translate(10.195 16.089)" fill="#5b665e"/>
    <path id="Tracé_109" data-name="Tracé 109" d="M86.035,104.508a.955.955,0,0,0-.357-.441q-.134-.133-.535,0l-4.636,1.856L78.992,102.3l4.9-2.033a.694.694,0,0,0,.357-.354.559.559,0,0,0,0-.53l-.089-.265a.884.884,0,0,0-.357-.442q-.134-.133-.535,0l-5.884,2.387c-.178.089-.357.177-.357.354a.558.558,0,0,0,0,.53l4.279,10.343c.089.264.267.353.357.353s.178.089.267.089a.329.329,0,0,0,.267-.089l.267-.089a.7.7,0,0,0,.357-.353.561.561,0,0,0,0-.531l-1.783-4.243,4.636-1.856a.694.694,0,0,0,.357-.354c.089-.089.089-.264,0-.53Z" transform="translate(11.501 14.735)" fill="#5b665e"/>
    <path id="Tracé_110" data-name="Tracé 110" d="M99.975,100.883,89.812,94.607a.973.973,0,0,0-.981,0l-.446.354a.843.843,0,0,0-.267.884l3.566,11.314.089.177a.491.491,0,0,0,.446.266h.089c.178,0,.267,0,.357-.089l.267-.177c.178-.177.267-.266.267-.443v-.353l-.8-2.563,4.279-3.271,2.318,1.415c.089.089.178.089.357.089s.357,0,.446-.177l.267-.177a.486.486,0,0,0,.267-.443.646.646,0,0,0-.178-.53Zm-4.725-.972-3.21,2.475-1.783-5.568Z" transform="translate(13.163 14.118)" fill="#5b665e"/>
    <path id="Tracé_111" data-name="Tracé 111" d="M96.121,88.461a.659.659,0,0,0-.535-.177.491.491,0,0,0-.446.265l-.178.265a1.248,1.248,0,0,0-.178.53.485.485,0,0,0,.267.442l8.737,7.072c.178.088.268.177.446.177a.492.492,0,0,0,.446-.265l.178-.265a1.258,1.258,0,0,0,.178-.53.808.808,0,0,0-.268-.442Z" transform="translate(14.164 13.193)" fill="#5b665e"/>
    <path id="Tracé_112" data-name="Tracé 112" d="M112.948,82.565c-.09-.088-.179-.088-.357-.088l-4.992.265a3.587,3.587,0,0,0-.268-1.945,3.888,3.888,0,0,0-1.872-1.679,3.717,3.717,0,0,0-3.031-.265,4.342,4.342,0,0,0-2.14,2.21l-1.694,3.359a.56.56,0,0,0,0,.53.693.693,0,0,0,.357.354l10.163,4.95a.542.542,0,0,0,.357.088h.178a.884.884,0,0,0,.445-.354l.09-.265a.557.557,0,0,0,0-.53.887.887,0,0,0-.356-.442L105.9,86.808l1.248-2.563,5.082-.265a1.138,1.138,0,0,0,.534-.088.726.726,0,0,0,.446-.442l.09-.177a.563.563,0,0,0,0-.53C113.215,82.742,113.126,82.565,112.948,82.565Zm-7.4,1.237L104.3,86.278l-3.835-1.856,1.248-2.475a2.841,2.841,0,0,1,1.338-1.5,1.978,1.978,0,0,1,1.694.177c.624.354,1.069.707,1.159,1.238A2.769,2.769,0,0,1,105.548,83.8Z" transform="translate(14.723 11.752)" fill="#5b665e"/>
    <path id="Tracé_113" data-name="Tracé 113" d="M116.29,69.316a.492.492,0,0,0-.446-.265h-.268a.5.5,0,0,0-.535.088.55.55,0,0,0-.268.442l-.891,5.392-3.835-.619.892-4.95a1.107,1.107,0,0,0-.09-.53.489.489,0,0,0-.445-.265h-.268a1.138,1.138,0,0,0-.534.088.55.55,0,0,0-.268.442l-.892,4.95-3.655-.619.892-5.3a1.107,1.107,0,0,0-.09-.53.491.491,0,0,0-.446-.265h-.267a.5.5,0,0,0-.536.088.552.552,0,0,0-.267.442l-1.07,6.276a.646.646,0,0,0,.178.53.492.492,0,0,0,.446.265l11.144,1.856h.178c.179,0,.268-.088.357-.088a.485.485,0,0,0,.267-.442l1.07-6.364A4.984,4.984,0,0,1,116.29,69.316Z" transform="translate(15.393 10.062)" fill="#5b665e"/>
    <path id="Tracé_114" data-name="Tracé 114" d="M61.995,64.906c-3.031,2.475-5.617,5.038-5.528,9.812a7.762,7.762,0,0,0,7.489,7.514,7.214,7.214,0,0,0,4.9-1.856l.089-.088A14.288,14.288,0,0,0,71.98,77.1,131.52,131.52,0,0,1,61.995,64.906Z" transform="translate(8.438 9.699)" fill="#5b665e"/>
    <path id="Tracé_115" data-name="Tracé 115" d="M62.261,62.865c2.051-1.856,5.706-5.3,5.973-8.574a4.91,4.91,0,0,0-1.248-3.978,3.848,3.848,0,0,0-2.942-1.326,5.153,5.153,0,0,0-5.171,5.127v.177C58.784,55.7,59.319,58.268,62.261,62.865Z" transform="translate(8.796 7.32)" fill="#5b665e"/>
    <path id="Tracé_116" data-name="Tracé 116" d="M69.085,34.76A34.121,34.121,0,1,0,103.5,68.88,34.289,34.289,0,0,0,69.085,34.76ZM85.847,71.443H82.815a28.364,28.364,0,0,1-3.834,9.9c1.694,1.768,3.388,3.624,5.171,5.392a1.488,1.488,0,0,1,0,2.033,1.52,1.52,0,0,1-2.05,0c-1.6-1.679-3.21-3.359-4.725-4.95a18.29,18.29,0,0,1-3.21,3.271,10.313,10.313,0,0,1-17.118-7.779c-.178-6.541,3.834-9.9,6.776-12.287-2.764-4.42-4.19-7.955-4.1-10.519v-.088a8.108,8.108,0,0,1,8.113-8.044,6.681,6.681,0,0,1,5.082,2.3,7.9,7.9,0,0,1,1.961,6.188c-.357,4.42-4.636,8.4-6.954,10.519l-.267.265a108.371,108.371,0,0,0,9.361,11.58,26.562,26.562,0,0,0,2.942-7.69H76.931a1.414,1.414,0,1,1,0-2.829h9a1.4,1.4,0,0,1,1.427,1.414A1.536,1.536,0,0,1,85.847,71.443Z" transform="translate(5.181 5.194)" fill="#5b665e"/>
  </g>
</svg>
