<?xml version="1.0" encoding="utf-8"?>
<!-- Generator: Adobe Illustrator 24.2.0, SVG Export Plug-In . SVG Version: 6.00 Build 0)  -->
<svg version="1.1" id="Calque_1" xmlns="http://www.w3.org/2000/svg" xmlns:xlink="http://www.w3.org/1999/xlink" x="0px" y="0px"
	 viewBox="0 0 94 94" style="enable-background:new 0 0 94 94;" xml:space="preserve">
<style type="text/css">
	.st0{fill:#FFFFFF;}
	.st1{fill:#C0C0AC;}
</style>
<g transform="translate(-972 -4161)">
	<circle class="st0" cx="1019" cy="4208" r="47"/>
	<path class="st1" d="M1011.7,4224c-2.5-0.1-4.5-2-4.7-4.5v-24.7c0-2.5,2.4-3.8,4.7-3.8h17.2c2-0.2,3.8,1.4,4,3.4c0,0.1,0,0.3,0,0.4
		v5.5l0.5-0.4c0.1-0.1,0.1-0.1,0.2-0.2l1.5-1.1c0.3-0.2,0.6-0.3,1-0.3c1.1,0.1,2.2,0.8,2.7,1.8c1.7,2.5,0.8,4,0.7,4.2
		c-0.1,0.1-0.1,0.2-0.2,0.2l-1.3,0.9c-0.1,0.2-0.2,0.3-0.3,0.4l-4.9,3.4v10.2c0.1,2.3-1.6,4.3-3.9,4.5c0,0,0,0-0.1,0L1011.7,4224z
		 M1009.6,4194.8v24.7c0.2,1,1,1.8,2.1,1.8h17.2c0.9,0,1.4-0.9,1.4-1.8v-8.4l-1.4,1l0,0l0,0c-0.1,0-0.1,0.1-0.2,0.1c0,0,0,0,0,0
		c0,0,0,0,0,0l-7.1,1.7c-0.1,0-0.1,0-0.2,0c-0.5,0-0.9-0.4-0.9-0.9c0-0.2,0-0.3,0.1-0.5l0.1-0.1h-7c-0.5,0-0.9-0.4-0.9-0.9
		c0-0.5,0.4-0.9,0.9-0.9c0,0,0,0,0,0h7.5c0.2,0,0.4,0.1,0.5,0.2l1.7-2.8h-9.7c-0.5,0-0.9-0.4-0.9-0.9c0-0.5,0.4-0.9,0.9-0.9h10.8
		l0,0l0,0c0.1-0.1,0.1-0.2,0.2-0.3l0,0l5.6-3.9v-7.4c0-0.4,0-1.2-1.4-1.2h-17.2C1010.8,4193.6,1009.6,4194,1009.6,4194.8
		L1009.6,4194.8z M1023.1,4211.8l3.8-0.9l-1.7-2.5L1023.1,4211.8z M1026.4,4207l2.2,3.2l7.5-5.2l-2.2-3.2L1026.4,4207z
		 M1036.2,4200.2l-0.8,0.5l2.2,3.1l0.6-0.4c0.1-0.8-0.2-1.5-0.7-2.1C1036.8,4200.2,1036.3,4200.2,1036.2,4200.2L1036.2,4200.2z
		 M1013.6,4203.8c-0.5,0-0.9-0.4-0.9-0.9c0-0.5,0.4-0.9,0.9-0.9c0,0,0,0,0,0h12.8c0.5,0,0.9,0.4,0.9,0.9c0,0.5-0.4,0.9-0.9,0.9
		H1013.6z M1013.6,4199.8c-0.5,0-0.9-0.4-0.9-0.9s0.4-0.9,0.9-0.9h12.8c0.5,0,0.9,0.4,0.9,0.9s-0.4,0.9-0.9,0.9H1013.6z"/>
</g>
</svg>
