<?xml version="1.0" encoding="utf-8"?>
<!-- Generator: Adobe Illustrator 24.2.0, SVG Export Plug-In . SVG Version: 6.00 Build 0)  -->
<svg version="1.1" id="Calque_1" xmlns="http://www.w3.org/2000/svg" xmlns:xlink="http://www.w3.org/1999/xlink" x="0px" y="0px"
	 viewBox="0 0 53 31" style="enable-background:new 0 0 53 31;" xml:space="preserve">
<style type="text/css">
	.st0{fill:#C0C0AC;}
</style>
<path class="st0" d="M53,23.1c0-4.4-2.6-8.4-6.7-10.1c3.2-2.4,3.8-6.9,1.5-10.1c-2.3-3.2-6.8-3.9-9.9-1.5c0,0,0,0-0.1,0
	c-3.2,2.4-3.8,6.9-1.4,10.1c0.4,0.5,0.9,1,1.4,1.4c-2.6,1.1-4.7,3.3-5.8,5.9l-1.3-0.7c3.2-2.4,3.8-6.9,1.5-10.1
	c-2.3-3.2-6.8-3.9-9.9-1.5c0,0,0,0-0.1,0c-3.2,2.4-3.8,6.9-1.5,10.1c0.4,0.6,0.9,1.1,1.5,1.5l-1.3,0.7c-1.1-2.6-3.2-4.7-5.8-5.9
	C18.3,10.7,19,6.2,16.6,3c-2.3-3.2-6.8-3.9-9.9-1.5c0,0,0,0-0.1,0C3.4,3.9,2.8,8.4,5.2,11.6c0.4,0.5,0.9,1,1.4,1.4
	C2.6,14.8,0,18.8,0,23.1v2.6h2.3v-2.6c0-4.8,3.8-8.6,8.6-8.7c3.7,0,7.1,2.4,8.2,5.9c-2.2,2.1-3.4,5-3.4,8V31h2.3v-2.6
	c-0.4-4.7,3.1-8.9,7.9-9.3c4.7-0.4,8.9,3.1,9.3,7.9c0,0.5,0,0.9,0,1.4V31h2.3v-2.6c0-3-1.2-5.9-3.4-8c1.6-4.5,6.5-6.8,11-5.3
	c0,0,0,0,0.1,0c3.4,1.2,5.6,4.4,5.7,8v2.6H53V23.1z M6.1,7.3c0-2.7,2.2-4.8,4.9-4.8c2.7,0,4.8,2.2,4.8,4.9c0,2.7-2.2,4.8-4.9,4.8
	C8.2,12.2,6,10,6.1,7.3z M21.6,12.5c0-2.7,2.2-4.9,4.8-4.9s4.9,2.2,4.9,4.8c0,2.7-2.1,4.8-4.8,4.9h-0.1
	C23.8,17.4,21.7,15.2,21.6,12.5L21.6,12.5z M37.2,7.3c0-2.7,2.2-4.8,4.9-4.8c2.7,0,4.8,2.2,4.8,4.9c0,2.7-2.2,4.8-4.9,4.8l0,0
	C39.4,12.2,37.2,10,37.2,7.3C37.2,7.3,37.2,7.3,37.2,7.3z"/>
</svg>
