<?xml version="1.0" encoding="utf-8"?>
<!-- Generator: Adobe Illustrator 24.2.0, SVG Export Plug-In . SVG Version: 6.00 Build 0)  -->
<svg version="1.1" id="Calque_1" xmlns="http://www.w3.org/2000/svg" xmlns:xlink="http://www.w3.org/1999/xlink" x="0px" y="0px"
	 viewBox="0 0 47 54" style="enable-background:new 0 0 47 54;" xml:space="preserve">
<style type="text/css">
	.st0{fill:#424242;}
</style>
<path class="st0" d="M33.6,37.8c0,2.1-1.7,3.7-3.7,3.7c0,0,0,0,0,0h-1.2V54h-1.8V39.8h3c1.1,0,2-0.9,2-2V21.4c0-1.1-0.9-2-2-2H17.3
	c-1.1,0-2,0.9-2,2v16.4c0,1.1,0.9,2,2,2h2.8V54h-1.8V41.6h-1c-2.1,0-3.7-1.7-3.7-3.7c0,0,0,0,0,0V21.4c0-2.1,1.7-3.7,3.7-3.7
	c0,0,0,0,0,0h12.5c2.1,0,3.7,1.7,3.7,3.7c0,0,0,0,0,0L33.6,37.8L33.6,37.8z M16.3,7.2c0-4,3.2-7.2,7.2-7.2s7.2,3.2,7.2,7.2
	c0,4-3.2,7.2-7.2,7.2c0,0,0,0,0,0C19.5,14.4,16.3,11.2,16.3,7.2z M18.1,7.2c0,3,2.4,5.4,5.4,5.4c3,0,5.4-2.4,5.4-5.4
	c0-3-2.4-5.4-5.4-5.4C20.6,1.8,18.1,4.2,18.1,7.2L18.1,7.2z M11.2,54H13V43.6h0.8v-1.8h-2.7L11.2,54z M1.8,40.3V26.4
	c0-0.8,0.7-1.5,1.5-1.5h8.2v-1.8H3.3c-1.8,0-3.3,1.5-3.3,3.3v13.9c0,1.8,1.5,3.3,3.3,3.3H4V54h1.8V41.8H3.3
	C2.5,41.8,1.8,41.2,1.8,40.3C1.8,40.3,1.8,40.3,1.8,40.3L1.8,40.3z M2.3,14.4c0-3.5,2.8-6.2,6.3-6.2c3.5,0,6.2,2.8,6.2,6.3
	c0,3.4-2.8,6.2-6.2,6.2C5.1,20.7,2.3,17.9,2.3,14.4C2.3,14.4,2.3,14.4,2.3,14.4L2.3,14.4z M4.1,14.4c0,2.4,2,4.4,4.4,4.4
	s4.4-2,4.4-4.4C13,12,11,10,8.6,10C6.1,10,4.1,11.9,4.1,14.4C4.1,14.4,4.1,14.4,4.1,14.4L4.1,14.4z M33.1,43.6H34V54h1.8V41.8h-2.6
	V43.6z M43.7,23.1h-8.2v1.8h8.2c0.8,0,1.5,0.7,1.5,1.5v13.9c0,0.8-0.7,1.5-1.5,1.5h-2.6V54H43V43.6h0.7c1.8,0,3.3-1.5,3.3-3.3V26.4
	C47,24.6,45.5,23.1,43.7,23.1L43.7,23.1z M32.2,14.4c0-3.5,2.8-6.2,6.3-6.2c3.5,0,6.2,2.8,6.2,6.3c0,3.4-2.8,6.2-6.2,6.2
	C35,20.7,32.2,17.9,32.2,14.4C32.2,14.4,32.2,14.4,32.2,14.4L32.2,14.4z M34,14.4c0,2.4,2,4.4,4.4,4.4s4.4-2,4.4-4.4
	c0-2.4-2-4.4-4.4-4.4C35.9,10,34,12,34,14.4C34,14.4,34,14.4,34,14.4L34,14.4z"/>
</svg>
