<?xml version="1.0" encoding="utf-8"?>
<!-- Generator: Adobe Illustrator 24.2.0, SVG Export Plug-In . SVG Version: 6.00 Build 0)  -->
<svg version="1.1" id="Calque_1" xmlns="http://www.w3.org/2000/svg" xmlns:xlink="http://www.w3.org/1999/xlink" x="0px" y="0px"
	 viewBox="0 0 23 35" style="enable-background:new 0 0 23 35;" xml:space="preserve">
<style type="text/css">
	.st0{fill:#C0C0AC;}
</style>
<path class="st0" d="M8.4,35v-2.5h6.8V35H8.4z M11.4,29.2c-0.3,0-0.6-0.1-0.8-0.3C-0.8,19.4,0,11.6,0,11.3C0.1,4.9,5.4-0.1,11.7,0
	C17.9,0.1,23,5.2,23,11.4c0,0.2,0.8,8-10.6,17.5c-0.2,0.2-0.5,0.3-0.8,0.3L11.4,29.2z M2.5,11.4c0,0.2-0.5,6.8,9.1,15.1
	c9.6-8.3,9.1-14.9,9.1-15c0-5-4-9.1-9-9.1C6.6,2.4,2.5,6.4,2.5,11.4L2.5,11.4z M7.2,10.4c0.5-2.4,2.8-4,5.3-3.6s4,2.8,3.6,5.3
	c-0.3,1.8-1.7,3.2-3.5,3.5c-0.3,0.1-0.6,0.1-0.9,0.1c-2.5,0-4.5-2-4.5-4.5C7.1,11,7.1,10.7,7.2,10.4L7.2,10.4z M9.5,11.3
	c0,1.1,0.9,2.1,2,2.1s2.1-0.9,2.1-2s-0.9-2.1-2-2.1c0,0,0,0,0,0C10.4,9.2,9.5,10.2,9.5,11.3L9.5,11.3z"/>
</svg>
