<?xml version="1.0" encoding="utf-8"?>
<!-- Generator: Adobe Illustrator 24.2.0, SVG Export Plug-In . SVG Version: 6.00 Build 0)  -->
<svg version="1.1" id="Calque_1" xmlns="http://www.w3.org/2000/svg" xmlns:xlink="http://www.w3.org/1999/xlink" x="0px" y="0px"
	 viewBox="0 0 50 50" style="enable-background:new 0 0 50 50;" xml:space="preserve">
<style type="text/css">
	.st0{fill:#FFFFFF;}
	.st1{fill:#424242;}
</style>
<g transform="translate(-489.91 -6391)">
	<ellipse class="st0" cx="514.9" cy="6416" rx="25" ry="25"/>
	<path class="st1" d="M521.8,6407.8c-1.5-1.5-3.6-2.3-5.7-2.3c-2.5-0.1-4.9,0.9-6.6,2.7c-1.4,1.5-2.2,3.5-2.2,5.5
		c0,2.5,1,4.4,2.6,5.1c0.1,0,0.2,0.1,0.3,0.1c0.4,0,0.7-0.3,0.7-0.6c0.1-0.2,0.2-0.8,0.2-1c0.1-0.4,0-0.8-0.2-1
		c-0.5-0.6-0.7-1.4-0.7-2.2c-0.1-3,2.3-5.6,5.3-5.7c0.1,0,0.1,0,0.2,0c2.8,0,4.6,1.7,4.6,4.5c0,1.6-0.3,3.1-1,4.5
		c-0.4,1-1.4,1.7-2.4,1.8c-0.5,0-1-0.2-1.3-0.6c-0.3-0.4-0.4-0.9-0.3-1.4c0.1-0.6,0.3-1.2,0.5-1.7c0.3-0.9,0.5-1.9,0.6-2.8
		c0.1-1.1-0.6-2.1-1.7-2.2c-0.1,0-0.1,0-0.2,0c-1.5,0-2.6,1.6-2.6,3.6c0,0.7,0.1,1.4,0.4,2c-0.2,0.8-1.3,5.8-1.5,6.7
		c-0.1,0.5-0.9,4.9,0.4,5.2c1.4,0.4,2.6-3.8,2.7-4.3c0.1-0.4,0.5-1.8,0.7-2.7c0.7,0.7,1.7,1.1,2.7,1.1c2,0,3.8-1,4.9-2.6
		c1.3-1.9,1.9-4.1,1.8-6.4C523.9,6411.1,523.2,6409.2,521.8,6407.8L521.8,6407.8z"/>
</g>
</svg>
