<?xml version="1.0" encoding="utf-8"?>
<!-- Generator: Adobe Illustrator 24.2.0, SVG Export Plug-In . SVG Version: 6.00 Build 0)  -->
<svg version="1.1" id="Calque_1" xmlns="http://www.w3.org/2000/svg" xmlns:xlink="http://www.w3.org/1999/xlink" x="0px" y="0px"
	 viewBox="0 0 11 15" style="enable-background:new 0 0 11 15;" xml:space="preserve">
<style type="text/css">
	.st0{fill:#424242;}
</style>
<path class="st0" d="M9.6,1.5C8.6,0.5,7.2,0,5.8,0C4.2-0.1,2.6,0.6,1.5,1.8C0.5,2.8,0,4.1,0,5.5c0,1.7,0.7,3,1.7,3.4
	C1.8,9,1.9,9,2,9c0.2,0,0.4-0.2,0.5-0.4c0-0.1,0.1-0.5,0.2-0.7c0.1-0.2,0-0.5-0.2-0.7C2.1,6.8,2,6.2,2,5.7C1.9,3.7,3.5,2,5.5,1.9
	c0,0,0.1,0,0.1,0c1.5-0.1,2.9,1,3,2.5c0,0.2,0,0.3,0,0.5c0,1-0.2,2.1-0.7,3C7.7,8.6,7.1,9,6.4,9.1C6,9.1,5.7,9,5.5,8.7
	C5.3,8.4,5.3,8.1,5.4,7.8C5.4,7.4,5.6,7,5.7,6.6C5.9,6,6,5.4,6.1,4.8C6.2,4,5.6,3.4,4.9,3.3c0,0-0.1,0-0.1,0C3.8,3.3,3,4.3,3,5.7
	C3,6.1,3.1,6.6,3.3,7c-0.1,0.6-0.9,3.9-1,4.5c-0.1,0.4-0.6,3.2,0.2,3.5c0.9,0.3,1.7-2.5,1.8-2.9c0.1-0.3,0.3-1.2,0.4-1.8
	c0.5,0.5,1.1,0.7,1.8,0.8c1.3,0,2.5-0.7,3.2-1.7C10.6,8.1,11,6.6,11,5.1C11,3.7,10.5,2.5,9.6,1.5z"/>
</svg>
