<?xml version="1.0" encoding="utf-8"?>
<!-- Generator: Adobe Illustrator 24.2.0, SVG Export Plug-In . SVG Version: 6.00 Build 0)  -->
<svg version="1.1" id="Calque_1" xmlns="http://www.w3.org/2000/svg" xmlns:xlink="http://www.w3.org/1999/xlink" x="0px" y="0px"
	 viewBox="0 0 94 94" style="enable-background:new 0 0 94 94;" xml:space="preserve">
<style type="text/css">
	.st0{fill:#F3F7FC;}
	.st1{fill:#657064;}
	.st2{fill:#FFFFFF;}
</style>
<g transform="translate(-972 -4586)">
	<path class="st0" d="M1019,4586c26,0,47,21,47,47s-21,47-47,47s-47-21-47-47S993,4586,1019,4586z"/>
	<circle class="st1" cx="1019" cy="4633" r="47"/>
	<path class="st2" d="M1014.7,4649.9c-0.4-0.1-0.7-0.5-0.7-0.9v-8.3l-11.4-4.7c-0.4-0.1-0.6-0.5-0.6-0.9c0-0.4,0.2-0.7,0.5-0.9
		l29.9-16c0.3-0.2,0.8-0.1,1.1,0.1c0.3,0.2,0.5,0.6,0.4,1l-6,25.9c-0.1,0.3-0.3,0.5-0.5,0.7c-0.1,0.1-0.3,0.1-0.5,0.1
		c-0.1,0-0.3,0-0.4-0.1l-10.6-4.4v4.5l1.2-1.6c0.3-0.4,1-0.5,1.4-0.2c0.4,0.3,0.5,1,0.2,1.4l0,0l-3,4c-0.2,0.3-0.5,0.4-0.8,0.4
		C1014.9,4650,1014.8,4650,1014.7,4649.9z M1026.2,4643.6l5.2-22.7l-26.1,14l9.4,3.9l8.5-9.5c0.3-0.4,1-0.5,1.4-0.2
		c0.4,0.3,0.5,1,0.2,1.4c0,0-0.1,0.1-0.1,0.1l-8,8.9L1026.2,4643.6z"/>
</g>
</svg>
