<?xml version="1.0" encoding="utf-8"?>
<!-- Generator: Adobe Illustrator 24.2.0, SVG Export Plug-In . SVG Version: 6.00 Build 0)  -->
<svg version="1.1" id="Calque_1" xmlns="http://www.w3.org/2000/svg" xmlns:xlink="http://www.w3.org/1999/xlink" x="0px" y="0px"
	 viewBox="0 0 63 50" style="enable-background:new 0 0 63 50;" xml:space="preserve">
<style type="text/css">
	.st0{fill:#C0C0AC;}
</style>
<path class="st0" d="M6.5,12.4C2.4,17.5,0,23.8,0,30.4c-0.1,5.1,1.8,10.1,5.3,13.9c3.5,3.7,7.5,5.6,11.9,5.6c3.3,0.1,6.6-1.1,9-3.3
	c2.3-2,3.7-4.9,3.6-8c0-5.6-4.5-10.1-10-10.2c-1.3,0-2.7,0.3-3.9,0.7c-1.1,0.4-2.3,0.7-3.4,0.7c-0.9,0-1.7-0.6-2.2-1.4
	c-0.7-0.8-1-2.4-1-4.7c0-3.8,1.3-7.6,3.7-10.6C15.6,10,19.7,6.9,25.5,4V0C17.2,2.6,10.9,6.8,6.5,12.4z M39.6,12.2
	C35.3,17.4,33,24,33,30.7c-0.2,5.1,1.7,10,5.2,13.8c3.5,3.7,7.4,5.5,11.7,5.5c3.4,0.1,6.8-1.2,9.3-3.5c2.4-2.1,3.8-5.1,3.8-8.2
	c0-2.7-1-5.2-3-7c-1.9-1.9-4.4-2.9-7-2.9c-1.5,0-2.9,0.3-4.3,0.8c-1,0.4-2.1,0.7-3.2,0.8c-0.9-0.1-1.8-0.6-2.3-1.4
	c-0.8-1.2-1.2-2.6-1.1-4.1c-0.1-3.7,1-7.4,3.1-10.5c2.1-3,6.5-6.3,13.1-10.1V0.3C50.2,2.6,44,6.6,39.6,12.2z"/>
</svg>
