<?xml version="1.0" encoding="utf-8"?>
<!-- Generator: Adobe Illustrator 24.2.0, SVG Export Plug-In . SVG Version: 6.00 Build 0)  -->
<svg version="1.1" id="Calque_1" xmlns="http://www.w3.org/2000/svg" xmlns:xlink="http://www.w3.org/1999/xlink" x="0px" y="0px"
	 viewBox="0 0 49.9 57" style="enable-background:new 0 0 49.9 57;" xml:space="preserve">
<style type="text/css">
	.st0{fill:#424242;}
</style>
<path class="st0" d="M21.5,56.9l-2.9-1.7c-0.2-0.1-0.3-0.3-0.4-0.5c-0.1-0.2-0.1-0.4,0.1-0.6l3.6-6.1c-0.3-0.1-0.6-0.3-0.8-0.5
	c-1.3-0.7-2.5-1.6-3.6-2.5c-0.6,1.2-2.1,3.6-4.6,4.3c-0.4,0.1-0.8,0.1-1.2,0.1c-1.5-0.1-3-0.7-4.1-1.8c-2.4-1.9-4-4.6-4.4-7.6
	l-1.7,0.6c-0.1,0.1-0.2,0.1-0.3,0.1c-0.4,0-0.8-0.4-0.8-0.8c0-0.1,0-0.1,0-0.2l0.7-3l-1-2.9c-0.1-0.3-0.1-0.6,0.1-0.8
	c0.2-0.2,0.5-0.3,0.8-0.3l3,0.7l2.9-1c0.3-0.1,0.6-0.1,0.8,0.1c0.2,0.2,0.3,0.5,0.3,0.8l-0.7,3l1,2.7c0.1,0.1,0.1,0.3,0.1,0.4
	c0,0.5-0.4,0.8-0.8,0.8H7.4l-2.5-0.6c0.4,2.6,1.8,5,3.9,6.6c1.4,1.2,2.7,1.6,3.8,1.3c2-0.5,3.3-2.9,3.7-3.8
	c-0.4-0.5-0.8-0.8-1.2-1.2c-2.1-2.3-2-3.8-1.5-4.6l0.1-0.1l19.5-25.7c-1.9-1.5-2.4-2.3-2-3.1c0.1-0.1,0.2-0.3,0.3-0.3l16.5-8.6
	c0.2-0.1,0.5-0.1,0.8,0c0.3,0.2,0.4,0.4,0.5,0.7l0.5,18.6c0,0.2,0,0.3-0.1,0.5c-0.2,0.4-0.7,0.6-1.1,0.5c-0.9-0.1-1.8-0.3-2.6-0.7
	L33.1,49.3c0,0-0.1,0-0.1,0.1c0,0,0,0,0,0c-0.6,0.9-1.7,1.3-2.7,1.2c-1.3-0.1-2.6-0.3-3.8-0.7l-3.9,6.8c-0.2,0.2-0.4,0.4-0.7,0.4
	C21.8,57,21.7,56.9,21.5,56.9z M20.3,54.1l1.4,0.8l3.3-5.6c-0.5-0.2-1.1-0.4-1.6-0.7L20.3,54.1z M33.1,9.8c0.6,0.6,1.2,1.1,1.8,1.6
	c0.3,0.3,0.4,0.8,0.1,1.2l-20,26.3c-0.2,0.4,0.1,1.4,1.3,2.7c1.6,1.8,3.6,3.2,5.7,4.4c3.1,1.9,6.3,3,8.3,3c0.5,0.1,0.9-0.1,1.3-0.4
	l13.2-30.3c0.2-0.4,0.6-0.6,1-0.5c0.7,0.4,1.5,0.6,2.3,0.8L47.7,2.1L33.1,9.8z M2.8,36.4c0,0.1,0.1,0.3,0,0.5l-0.4,1.8l1.7-0.5
	c0.1,0,0.3-0.1,0.5,0l1.8,0.4l-0.6-1.7c0-0.1-0.1-0.3,0-0.5l0.4-1.8l-1.7,0.6c-0.1,0-0.3,0.1-0.5,0l-1.8-0.4L2.8,36.4z M22.1,38
	c-0.3-0.3-0.4-0.7-0.2-1.1l9-13c0.3-0.3,0.8-0.4,1.1-0.2c0.3,0.3,0.4,0.7,0.2,1.1l-9,13c-0.2,0.2-0.4,0.3-0.7,0.3
	C22.4,38.1,22.2,38,22.1,38L22.1,38z"/>
</svg>
