<?xml version="1.0" encoding="utf-8"?>
<!-- Generator: Adobe Illustrator 24.2.0, SVG Export Plug-In . SVG Version: 6.00 Build 0)  -->
<svg version="1.1" id="Calque_1" xmlns="http://www.w3.org/2000/svg" xmlns:xlink="http://www.w3.org/1999/xlink" x="0px" y="0px"
	 viewBox="0 0 94 94" style="enable-background:new 0 0 94 94;" xml:space="preserve">
<style type="text/css">
	.st0{fill:#F3F7FC;}
	.st1{fill:#657064;}
	.st2{fill:#FFFFFF;}
</style>
<g transform="translate(-355 -4500)">
	<path class="st0" d="M402,4500c26,0,47,21,47,47s-21,47-47,47s-47-21-47-47S376,4500,402,4500z"/>
	<circle class="st1" cx="402" cy="4547" r="47"/>
	<path class="st2" d="M395.7,4558c-2,0-3.7-1.7-3.7-3.7v-13.6c0-2,1.7-3.7,3.7-3.7h6.5c0.8,0,1.5,0.7,1.5,1.5s-0.7,1.5-1.5,1.5
		c0,0,0,0,0,0h-6.5c-0.4,0-0.6,0.3-0.6,0.6v13.6c0,0.4,0.3,0.6,0.6,0.6h13.6c0.4,0,0.6-0.3,0.6-0.6v-6.5c0-0.8,0.7-1.5,1.5-1.5
		s1.5,0.7,1.5,1.5v6.5c0,2-1.7,3.7-3.7,3.7L395.7,4558z M402.7,4547.3c-0.6-0.6-0.6-1.6,0-2.2c0,0,0,0,0,0l10.1-10.1H408
		c-0.8,0-1.5-0.7-1.5-1.5s0.7-1.5,1.5-1.5c0,0,0,0,0,0h6.3c2,0,3.7,1.7,3.7,3.7v6.3c0,0.8-0.6,1.5-1.5,1.6s-1.5-0.6-1.6-1.5
		c0,0,0-0.1,0-0.1v-4.8l-10.1,10.1C404.2,4547.9,403.3,4547.9,402.7,4547.3C402.7,4547.3,402.7,4547.3,402.7,4547.3L402.7,4547.3z"
		/>
</g>
</svg>
