<svg xmlns="http://www.w3.org/2000/svg" width="36" height="33" viewBox="0 0 36 33"><path d="M654.954,933a1.192,1.192,0,0,1-1.266-1.027V915.9A4.522,4.522,0,0,1,651,911.765a1.142,1.142,0,0,1,.079-.417l4.278-10.695a1.059,1.059,0,0,1,1.017-.653H682.6a1.061,1.061,0,0,1,1.047.737l3.306,10.664a1.035,1.035,0,0,1,.05.322,4.539,4.539,0,0,1-3.087,4.316v15.933a1.034,1.034,0,0,1-1.1,1.028Zm1.029-2.33h25.634v-14.5a3.547,3.547,0,0,0-5.858.089,4.444,4.444,0,0,1-3.382-1.568,4.431,4.431,0,0,1-6.763,0,4.43,4.43,0,0,1-6.733.035,4.485,4.485,0,0,1-2.9,1.527ZM653.2,912.056a2.255,2.255,0,0,0,2.286,2.045,2.323,2.323,0,0,0,2.282-2q-.016-.19-.016-.383a1.1,1.1,0,0,1,1.1-1.112,1.09,1.09,0,0,1,.892.465,1.111,1.111,0,0,1,.242.7q0,.156-.011.31a2.283,2.283,0,0,0,4.542-.358,1.1,1.1,0,1,1,2.194,0,2.285,2.285,0,1,0,4.569,0,1.1,1.1,0,1,1,2.194,0,2.285,2.285,0,1,0,4.569,0,1.1,1.1,0,1,1,2.194,0c0,.017,0,.034,0,.051a2.3,2.3,0,0,0,2.284,2.267,2.222,2.222,0,0,0,2.28-2.07l-3.01-9.633H657.114Zm6.94,16.285a1.1,1.1,0,0,1-1.1-1.112V919.36a1.106,1.106,0,0,1,1.1-1.113h17.7a1.106,1.106,0,0,1,1.1,1.113v7.869a1.1,1.1,0,0,1-1.1,1.112Zm.816-2.329h15.686v-5.435H660.957Z" transform="translate(-651 -900)" fill="#fff"/></svg>