<?xml version="1.0" encoding="utf-8"?>
<!-- Generator: Adobe Illustrator 24.2.0, SVG Export Plug-In . SVG Version: 6.00 Build 0)  -->
<svg version="1.1" id="Calque_1" xmlns="http://www.w3.org/2000/svg" xmlns:xlink="http://www.w3.org/1999/xlink" x="0px" y="0px"
	 viewBox="0 0 36 33" style="enable-background:new 0 0 36 33;" xml:space="preserve">
<style type="text/css">
	.st0{fill:#C0C0AC;}
</style>
<path class="st0" d="M4,33c-0.6,0-1.2-0.4-1.3-1V15.9C1.1,15.2,0,13.6,0,11.8c0-0.1,0-0.3,0.1-0.4L4.4,0.7C4.5,0.2,4.9,0,5.4,0h26.2
	c0.5,0,0.9,0.3,1,0.7L36,11.4c0,0.1,0.1,0.2,0,0.3c0,2-1.2,3.7-3.1,4.3V32c0,0.6-0.5,1-1,1c0,0,0,0-0.1,0H4z M5,30.7h25.6V16.2
	c-1.1-1.6-3.3-2-4.9-0.9c-0.4,0.3-0.7,0.6-0.9,0.9c-1.3,0-2.5-0.6-3.4-1.6c-1.6,1.9-4.4,2.1-6.2,0.5c-0.2-0.2-0.4-0.3-0.5-0.5
	c-1.6,1.9-4.4,2.1-6.2,0.5c-0.2-0.1-0.3-0.3-0.5-0.5c-0.7,0.9-1.8,1.4-2.9,1.5L5,30.7z M2.2,12.1c0.1,1.2,1.1,2.1,2.3,2
	c1.2,0,2.1-0.9,2.3-2c0-0.1,0-0.3,0-0.4c0-0.6,0.5-1.1,1.1-1.1c0,0,0,0,0,0c0.4,0,0.7,0.2,0.9,0.5C8.9,11.3,9,11.5,9,11.8
	c0,0.1,0,0.2,0,0.3c0.2,1.2,1.3,2.1,2.6,1.9c1.1-0.2,2-1.1,2-2.3c0-0.6,0.4-1.1,1-1.2c0.6,0,1.1,0.4,1.2,1c0,0.1,0,0.1,0,0.2
	c0,1.3,1,2.3,2.2,2.3c1.3,0,2.3-1,2.3-2.2c0,0,0-0.1,0-0.1c0-0.6,0.4-1.1,1-1.2c0.6,0,1.1,0.4,1.2,1c0,0.1,0,0.1,0,0.2
	c0,1.3,1,2.3,2.2,2.3c1.3,0,2.3-1,2.3-2.2c0,0,0-0.1,0-0.1c0-0.6,0.4-1.1,1-1.2c0.6,0,1.1,0.4,1.2,1c0,0.1,0,0.1,0,0.2
	c0,0,0,0,0,0.1c0,1.3,1,2.3,2.3,2.3c1.2,0,2.2-0.9,2.3-2.1l-3-9.6H6.1L2.2,12.1z M9.1,28.3c-0.6,0-1.1-0.5-1.1-1.1c0,0,0,0,0,0v-7.9
	c0-0.6,0.5-1.1,1.1-1.1c0,0,0,0,0,0h17.7c0.6,0,1.1,0.5,1.1,1.1c0,0,0,0,0,0v7.9c0,0.6-0.5,1.1-1.1,1.1c0,0,0,0,0,0H9.1z M10,26
	h15.7v-5.4H10L10,26z"/>
</svg>
