<?xml version="1.0" encoding="utf-8"?>
<!-- Generator: Adobe Illustrator 24.2.0, SVG Export Plug-In . SVG Version: 6.00 Build 0)  -->
<svg version="1.1" id="Calque_1" xmlns="http://www.w3.org/2000/svg" xmlns:xlink="http://www.w3.org/1999/xlink" x="0px" y="0px"
	 viewBox="0 0 37 36" style="enable-background:new 0 0 37 36;" xml:space="preserve">
<style type="text/css">
	.st0{fill:#C0C0AC;}
</style>
<path class="st0" d="M35.9,12.8l-11.2-1.7l-5-10.4c-0.3-0.6-1.1-0.9-1.7-0.6l0,0c-0.3,0.1-0.5,0.3-0.6,0.6l-5,10.4L1.1,12.8
	c-0.7,0.1-1.2,0.8-1.1,1.5c0,0.3,0.2,0.6,0.4,0.8l8.1,8.1L6.6,34.5c-0.1,0.7,0.3,1.4,1.1,1.5c0.3,0,0.6,0,0.8-0.1l10.1-5.4l10,5.4
	c0.6,0.3,1.4,0.1,1.7-0.5l0,0c0.1-0.3,0.2-0.6,0.1-0.8l-1.9-11.4l8.1-8.1c0.5-0.5,0.5-1.3,0-1.8C36.5,12.9,36.2,12.8,35.9,12.8
	L35.9,12.8z M26.2,21.7c-0.3,0.3-0.4,0.7-0.4,1.1l1.7,9.5l-8.4-4.5c-0.4-0.2-0.8-0.2-1.2,0l-8.4,4.5l1.6-9.5
	c0.1-0.4-0.1-0.8-0.4-1.1L4,15l9.4-1.4c0.4-0.1,0.8-0.3,1-0.7l4.2-8.6l4.2,8.6c0.2,0.4,0.5,0.7,1,0.7L33,15L26.2,21.7z"/>
</svg>
