<svg xmlns="http://www.w3.org/2000/svg" width="59.998" height="36.013" viewBox="0 0 59.998 36.013"><path d="M812,1440.835v-15.658c0-5.99,8.356-10.175,20.323-10.176h38.766a.9.9,0,0,1,.8.482.951.951,0,0,1-.029.948l-2.281,3.683,2.24,3.05a.95.95,0,0,1,.009,1.108l-2.255,3.182,2.288,3.691a.952.952,0,0,1,.029.948.9.9,0,0,1-.8.483H854.477v8.26c0,5.992-8.36,10.177-20.33,10.177C821.727,1451.012,812,1446.542,812,1440.835Zm1.819,0c0,4.016,8.168,8.314,20.33,8.314,12.024,0,18.512-4.284,18.512-8.314v-9.145c0-.016-.009-.031-.009-.048s.008-.031.009-.047v-2.162c-3.241,3.551-10.525,5.912-19.421,5.912s-16.18-2.361-19.421-5.912Zm0-15.658c0,5.131,10.081,8.307,19.421,8.307s19.421-3.176,19.421-8.307c0-4.015-8.169-8.313-20.33-8.313C820.3,1416.864,813.817,1421.148,813.817,1425.177Zm40.66,0v5.534h14.956l-1.733-2.8a.95.95,0,0,1,.032-1.047l2.223-3.136-2.214-3.015a.951.951,0,0,1-.041-1.059l1.733-2.8H845.248C850.869,1418.691,854.477,1421.7,854.477,1425.177Zm-37.907.2a.93.93,0,0,1-.031-.244c.008-1.965,5.291-5.471,15.79-5.471,10.417,0,16.519,3.35,17.47,5.144a.954.954,0,0,1,.049.784c-.677,1.779-6.243,5.1-16.609,5.1C823.4,1430.69,817.136,1427.546,816.57,1425.373Zm1.886-.284c.869,1.029,5.52,3.737,14.782,3.737,8.692,0,13.359-2.4,14.6-3.538-1.4-1.21-6.476-3.766-15.51-3.766C823.531,1421.521,819.269,1424.076,818.456,1425.089Z" transform="translate(-811.998 -1415)" fill="#fff"/></svg>