<?xml version="1.0" encoding="utf-8"?>
<!-- Generator: Adobe Illustrator 24.2.0, SVG Export Plug-In . SVG Version: 6.00 Build 0)  -->
<svg version="1.1" id="Calque_1" xmlns="http://www.w3.org/2000/svg" xmlns:xlink="http://www.w3.org/1999/xlink" x="0px" y="0px"
	 viewBox="0 0 49.9 50" style="enable-background:new 0 0 49.9 50;" xml:space="preserve">
<style type="text/css">
	.st0{fill:#FFFFFF;}
	.st1{fill:#424242;}
</style>
<g transform="translate(-425.97 -6390)">
	<ellipse class="st0" cx="450.9" cy="6415" rx="25" ry="25"/>
	<path class="st1" d="M446.2,6426.5c7.7,0.1,14.1-6.1,14.2-13.8c0-0.1,0-0.1,0-0.2c0-0.2,0-0.4,0-0.6c1-0.7,1.8-1.6,2.5-2.5
		c-0.9,0.4-1.9,0.7-2.9,0.8c1-0.6,1.8-1.6,2.2-2.7c-1,0.6-2.1,1-3.2,1.2c-0.9-1-2.3-1.6-3.6-1.6c-2.7,0-5,2.2-5,4.9
		c0,0.4,0,0.8,0.1,1.1c-4-0.2-7.7-2.1-10.3-5.1c-1.3,2.2-0.6,5.1,1.5,6.6c-0.8,0-1.6-0.2-2.3-0.6v0.1c0,2.4,1.7,4.4,4,4.8
		c-0.7,0.2-1.5,0.2-2.3,0.1c0.7,2,2.5,3.4,4.7,3.4c-1.8,1.4-4,2.1-6.2,2.1c-0.4,0-0.8,0-1.2-0.1
		C440.8,6425.7,443.5,6426.5,446.2,6426.5"/>
</g>
</svg>
