<?xml version="1.0" encoding="utf-8"?>
<!-- Generator: Adobe Illustrator 24.2.0, SVG Export Plug-In . SVG Version: 6.00 Build 0)  -->
<svg version="1.1" id="Calque_1" xmlns="http://www.w3.org/2000/svg" xmlns:xlink="http://www.w3.org/1999/xlink" x="0px" y="0px"
	 viewBox="0 0 49.9 50" style="enable-background:new 0 0 49.9 50;" xml:space="preserve">
<style type="text/css">
	.st0{fill:#FFFFFF;}
	.st1{fill:#231F20;}
</style>
<g transform="translate(-611.81 -6391)">
	<ellipse class="st0" cx="636.8" cy="6416" rx="25" ry="25"/>
	<path class="st1" d="M649.4,6409.8c-0.3-1.1-1.2-2-2.3-2.3c-2-0.5-10.2-0.5-10.2-0.5s-8.1,0-10.2,0.5c-1.1,0.3-2,1.2-2.3,2.3
		c-0.7,4.1-0.7,8.3,0,12.4c0.3,1.1,1.2,2,2.3,2.3c2,0.5,10.2,0.5,10.2,0.5s8.1,0,10.2-0.5c1.1-0.3,2-1.2,2.3-2.3
		C650.2,6418.1,650.2,6413.9,649.4,6409.8z M634.3,6419.8v-7.6l6.8,3.8L634.3,6419.8z"/>
</g>
</svg>
